<?xml version="1.0" encoding="UTF-8"?>
<svg version="1.1" xmlns="http://www.w3.org/2000/svg" width="1024" height="1024">
<path d="M0 0 C337.92 0 675.84 0 1024 0 C1024 337.92 1024 675.84 1024 1024 C686.08 1024 348.16 1024 0 1024 C0 686.08 0 348.16 0 0 Z " fill="#FAF6EF" transform="translate(0,0)"/>
<path d="M0 0 C0.90544052 -0.0071553 1.81088104 -0.01431061 2.74375916 -0.02168274 C4.2382534 -0.02571609 4.2382534 -0.02571609 5.76293945 -0.02983093 C6.81030777 -0.03640213 7.85767609 -0.04297333 8.93678284 -0.04974365 C12.41659614 -0.06951541 15.89636612 -0.0811506 19.3762207 -0.09111023 C20.56445435 -0.09518576 21.75268799 -0.09926128 22.97692871 -0.10346031 C29.27131986 -0.12434194 35.5656891 -0.13863212 41.86010742 -0.147995 C48.35206893 -0.1590373 54.84368559 -0.19340644 61.33552551 -0.23316669 C66.33368551 -0.25936417 71.33176396 -0.26768986 76.32998657 -0.27127647 C78.72207964 -0.27613774 81.11416918 -0.28773851 83.50619507 -0.30631447 C86.86418567 -0.33076159 90.22129264 -0.32972974 93.5793457 -0.32279968 C94.55948135 -0.33560974 95.539617 -0.3484198 96.54945374 -0.36161804 C106.2211937 -0.28924858 114.50186594 2.72413945 121.44995117 9.56343079 C129.32884846 18.6563828 133.03424475 31.8542666 137.08071899 43.00218201 C138.4516722 46.77820875 139.84139577 50.54725474 141.22962952 54.31695557 C141.95817997 56.29584217 142.68582316 58.27506301 143.4125824 60.25460815 C147.21163194 70.59716106 151.09981118 80.90538207 155.0012207 91.20967102 C155.70526169 93.07107266 156.40928173 94.93248222 157.11328125 96.79389954 C163.31579321 113.18670175 169.54455974 129.56954939 175.7734375 145.9523468 C180.48680125 158.34943207 185.1964552 170.74790265 189.89248657 183.15156555 C190.50081826 184.75825283 191.10935508 186.36486247 191.71810913 187.97138977 C192.54486216 190.15345049 193.37083187 192.33580591 194.1965332 194.51826477 C194.65688965 195.73441467 195.11724609 196.95056458 195.59155273 198.2035675 C196.32531262 200.17217965 197.02435353 202.15406951 197.6887207 204.14717102 C197.69092054 202.69023598 197.69092054 202.69023598 197.69316483 201.20386791 C197.72972417 177.59415438 197.78912675 153.98458309 197.87262344 130.3749876 C197.91247003 118.9576563 197.94483392 107.54039448 197.9597168 96.1230011 C197.97270423 86.17414293 197.99959421 76.22543731 198.04333377 66.27666503 C198.06601418 61.00652841 198.08162746 55.73658037 198.08060455 50.46639061 C198.07986181 45.5095407 198.09765636 40.55310872 198.12988853 35.59636688 C198.13843219 33.77384406 198.14010742 31.9512746 198.13452339 30.12874031 C198.12792874 27.64636757 198.14569309 25.16534239 198.16973877 22.68310547 C198.15809814 21.59312941 198.15809814 21.59312941 198.14622235 20.48113364 C198.20216717 17.23450283 198.26696036 15.58193666 200.57625961 13.20142841 C204.57531689 11.20563511 208.80599739 11.67696413 213.1887207 11.70967102 C214.13875977 11.68969055 215.08879883 11.66971008 216.06762695 11.64912415 C216.98415039 11.64976868 217.90067383 11.65041321 218.8449707 11.65107727 C220.09503906 11.64829773 220.09503906 11.64829773 221.37036133 11.64546204 C224.74137885 12.37497352 225.6594617 13.32140985 227.6887207 16.14717102 C228.29454064 19.64241936 228.2103445 23.11136379 228.16973877 26.65065002 C228.17315647 27.73212555 228.17657417 28.81360107 228.18009543 29.92784858 C228.1867019 33.56404832 228.16465161 37.19951546 228.14282227 40.83564758 C228.14169439 43.43718956 228.14232647 46.03873281 228.14459229 48.64027405 C228.14669032 54.24753196 228.13413393 59.85460378 228.11164093 65.46181488 C228.07914107 73.56888127 228.06871599 81.67585761 228.06368896 89.78298208 C228.05493313 102.93600493 228.02830978 116.08892859 227.99047852 129.24189758 C227.95376586 142.01923628 227.92545046 154.79654804 227.90844727 167.57392883 C227.90739637 168.36144477 227.90634548 169.14896071 227.90526274 169.96034077 C227.90004261 173.91105287 227.89498777 177.86176517 227.89001513 181.81247759 C227.84854413 214.59078095 227.7780879 247.36896272 227.6887207 280.14717102 C228.39339076 280.14668526 229.09806082 280.1461995 229.82408452 280.14569902 C236.56967125 280.14125736 243.31525774 280.13795631 250.06084557 280.13583711 C253.52615117 280.13471088 256.99145552 280.13319164 260.45676041 280.13066864 C281.72781275 280.11560139 302.99009999 280.24907651 324.25793457 280.61073303 C328.08376515 280.67465749 331.9096847 280.73282612 335.7355957 280.79170227 C343.0533929 280.90505233 350.37108302 281.02390574 357.6887207 281.14717102 C357.6887207 283.12717102 357.6887207 285.10717102 357.6887207 287.14717102 C352.28576961 288.59884554 347.0776041 289.58814646 341.5168457 290.14717102 C340.7606897 290.22779282 340.00453369 290.30841461 339.22546387 290.39147949 C336.79709951 290.64896964 334.36798551 290.8983328 331.9387207 291.14717102 C330.25931621 291.32295348 328.57995432 291.49914342 326.90063477 291.67573547 C323.62200996 292.01942753 320.34305642 292.35964732 317.0637207 292.69648743 C313.51077433 293.06147573 309.95891188 293.43574838 306.4074707 293.81513977 C304.75127422 293.98882791 303.0950305 294.16206683 301.4387207 294.33467102 C300.77130859 294.40621399 300.10389648 294.47775696 299.41625977 294.5514679 C297.17528551 294.77765148 294.93399583 294.96817347 292.6887207 295.14717102 C291.07670776 295.27635925 291.07670776 295.27635925 289.43212891 295.40815735 C276.10691686 296.33257984 262.77155423 296.40238943 249.41845703 296.44233704 C246.01681318 296.45357345 242.6157929 296.48826677 239.21437359 296.52750874 C235.9389588 296.55984012 232.66348946 296.56442862 229.38793945 296.57295227 C228.17136154 296.59046036 226.95478363 296.60796844 225.70133972 296.62600708 C224.0122625 296.62161873 224.0122625 296.62161873 222.2890625 296.61714172 C221.30109177 296.62300797 220.31312103 296.62887421 219.29521179 296.63491821 C215.95732459 296.0103064 214.7497432 294.79400341 212.6887207 292.14717102 C212.75500158 287.75790439 215.09463793 284.19846934 217.1262207 280.39717102 C224.05951068 266.8999231 224.22114023 254.25493285 219.9543457 239.66670227 C218.15334474 234.65836317 215.80705334 230.44371499 212.6887207 226.14717102 C212.02936523 225.19777649 212.02936523 225.19777649 211.35668945 224.22920227 C204.32056901 215.04371939 192.00181728 208.9343368 180.6887207 207.14717102 C165.28511196 206.14718643 152.39266652 209.10078145 140.33325195 219.10029602 C130.6524851 228.32699313 125.04839242 240.34082748 124.5559082 253.76826477 C124.55848633 255.02767883 124.56106445 256.2870929 124.5637207 257.58467102 C124.56114258 258.84150696 124.55856445 260.0983429 124.5559082 261.39326477 C124.64185436 265.70519498 124.64185436 265.70519498 125.6887207 272.14717102 C97.6387207 272.14717102 69.5887207 272.14717102 40.6887207 272.14717102 C40.1937207 261.75217102 40.1937207 261.75217102 39.6887207 251.14717102 C38.51874958 246.8572769 37.65231565 243.92331515 35.6887207 240.14717102 C35.2659082 239.29123352 34.8430957 238.43529602 34.4074707 237.55342102 C28.73640268 227.09345112 20.66648428 221.30592501 9.6887207 217.14717102 C8.5749707 216.71404602 7.4612207 216.28092102 6.3137207 215.83467102 C-5.81395629 213.53459435 -16.82818271 215.41893403 -27.2487793 222.08467102 C-36.55871308 228.79920959 -43.96554656 237.73782172 -46.3112793 249.14717102 C-47.03324585 256.45725103 -47.19859172 263.80596382 -47.3112793 271.14717102 C-50.7821392 269.2693021 -52.97804159 267.73837207 -54.9987793 264.33467102 C-55.59239258 263.36594055 -55.59239258 263.36594055 -56.19799805 262.37763977 C-59.24126375 256.28043023 -59.61282863 250.94498454 -59.61767578 244.26142883 C-59.6259993 243.2817514 -59.63432281 242.30207397 -59.64289856 241.29270935 C-59.66694497 238.06186416 -59.67576461 234.83122114 -59.68237305 231.60029602 C-59.69134408 229.34596193 -59.70046601 227.09162843 -59.70973206 224.83729553 C-59.72621051 220.11309871 -59.73391999 215.38897265 -59.73681641 210.66474915 C-59.74219612 204.62789877 -59.77986496 198.5917188 -59.82556057 192.55505753 C-59.85538681 187.89830633 -59.8625412 183.24171541 -59.86354256 178.58487701 C-59.86773446 176.36024152 -59.88012708 174.1356051 -59.9010601 171.91106415 C-59.92808647 168.79038004 -59.92311476 165.67123491 -59.91064453 162.55049133 C-59.92547882 161.64209503 -59.94031311 160.73369873 -59.95559692 159.79777527 C-59.87366512 152.55321215 -57.86900803 145.62728569 -52.55580807 140.42999649 C-45.02020274 134.46105872 -36.5473046 134.88657599 -27.3737793 135.02217102 C-26.21297852 135.03119446 -25.05217773 135.0402179 -23.85620117 135.04951477 C-21.00766696 135.0729595 -18.1596201 135.1075364 -15.3112793 135.14717102 C-15.23651115 133.99388809 -15.23651115 133.99388809 -15.16023254 132.81730652 C-14.56460081 124.33183059 -13.56493829 115.95224566 -12.38549805 107.52998352 C-12.19435233 106.14314351 -12.00359151 104.75625039 -11.81318665 103.36930847 C-11.31333679 99.73453731 -10.80914279 96.10038355 -10.30371094 92.46638489 C-9.50793711 86.74019013 -8.71832673 81.01314121 -7.92926407 75.28601837 C-7.73373751 73.86763138 -7.53794522 72.44928099 -7.34188461 71.03096771 C-6.24684404 63.10627234 -5.17643731 55.17922202 -4.16137695 47.24385071 C-4.06942582 46.52537649 -3.97747469 45.80690228 -3.88273716 45.06665611 C-3.44519068 41.64000917 -3.01151327 38.21292048 -2.58293152 34.78514099 C-2.42988052 33.57542633 -2.27682953 32.36571167 -2.11914062 31.11933899 C-1.98663406 30.05875275 -1.8541275 28.9981665 -1.71760559 27.90544128 C-1.37670938 25.59133091 -0.93350004 23.39894309 -0.3112793 21.14717102 C-1.2187793 20.92029602 -2.1262793 20.69342102 -3.0612793 20.45967102 C-6.92623798 18.89882232 -8.26460502 17.76821013 -10.3112793 14.14717102 C-11.17993127 9.76845597 -10.85200278 6.99430447 -8.4362793 3.20967102 C-5.49681162 0.35665828 -3.9764499 0.02153852 0 0 Z " fill="#122944" transform="translate(170.311279296875,328.8528289794922)"/>
<path d="M0 0 C9.32797263 -0.0930829 18.65578296 -0.16395774 27.98412037 -0.20724869 C32.3166487 -0.22803651 36.64885698 -0.25619092 40.98120117 -0.30175781 C45.16985361 -0.34553275 49.35820011 -0.36920315 53.54706383 -0.37950897 C55.13731381 -0.38684404 56.72754891 -0.40116625 58.31766701 -0.42292023 C78.96365723 -0.69388708 78.96365723 -0.69388708 86.52050781 6.34912109 C88.1772646 9.3176137 89.47706689 12.22897244 90.671875 15.4140625 C90.91097092 16.04394577 91.15006683 16.67382904 91.39640808 17.32279968 C92.18988076 19.4202843 92.96992896 21.52249814 93.75 23.625 C94.31639893 25.13073094 94.88355697 26.63617653 95.45141602 28.14135742 C96.99086556 32.23063736 98.51775315 36.32449022 100.04058838 40.41998291 C101.00667742 43.01795669 101.97453988 45.61526352 102.94287109 48.21240234 C105.61959338 55.39328132 108.29356354 62.57517147 110.95898438 69.76025391 C116.07589343 83.55029062 121.2588484 97.31440314 126.48413086 111.0637207 C129.38035876 118.68863882 132.24514848 126.32254494 135 134 C131.55239306 134.48619553 128.43444649 134.64504833 125 134 C122.26192805 131.81693245 120.7643843 129.08916751 119.0625 126.0625 C118.05871138 124.41789695 117.05480199 122.7733676 116.05078125 121.12890625 C115.55143066 120.28215332 115.05208008 119.43540039 114.53759766 118.56298828 C112.07348869 114.45561833 109.39750027 110.49050417 106.75 106.5 C102 99.31697557 102 99.31697557 102 97 C103.75 95.7109375 103.75 95.7109375 106 94.375 C106.7425 93.92898438 107.485 93.48296875 108.25 93.0234375 C109.11625 92.51683594 109.11625 92.51683594 110 92 C109.81535634 87.65815798 109.81535634 87.65815798 108 84 C102.63591861 84.35044014 99.30275029 85.67656307 94.8828125 88.67578125 C94.34018768 89.04221237 93.79756287 89.40864349 93.23849487 89.78617859 C92.10328721 90.55749353 90.97237879 91.33517132 89.84570312 92.11889648 C88.12000521 93.31596475 86.37806512 94.48597715 84.6328125 95.65429688 C83.52758773 96.40991299 82.42338278 97.16702342 81.3203125 97.92578125 C80.32273926 98.61067627 79.32516602 99.29557129 78.29736328 100.0012207 C75.91909504 101.78513335 75.91909504 101.78513335 75.07763672 104.08276367 C74.96000821 106.98759596 76.38452052 108.67370955 78 111 C82.34055923 110.50675463 84.56943537 109.6024973 88 107 C91 108 91 108 92.65625 110.82421875 C93.28076007 112.10719449 93.89449947 113.39544401 94.5 114.6875 C95.20244408 116.14095428 95.90561077 117.59405948 96.609375 119.046875 C96.98900391 119.83771484 97.36863281 120.62855469 97.75976562 121.44335938 C100.48512492 127.06146223 103.32863307 132.62192761 106.14257812 138.19604492 C107.44376469 140.79013176 108.72706585 143.39194524 110 146 C110.40734375 146.82363037 110.8146875 147.64726074 111.234375 148.49584961 C111.605625 149.27839111 111.976875 150.06093262 112.359375 150.8671875 C112.68905273 151.55280762 113.01873047 152.23842773 113.35839844 152.94482422 C114.65689862 157.10417527 113.20511279 160.95506123 112 165 C111.52046875 166.81951172 111.52046875 166.81951172 111.03125 168.67578125 C108.33846154 178.66153846 108.33846154 178.66153846 106 181 C103.56982422 181.22705078 103.56982422 181.22705078 100.5546875 181.1953125 C99.47832031 181.18886719 98.40195312 181.18242188 97.29296875 181.17578125 C96.16503906 181.15902344 95.03710938 181.14226562 93.875 181.125 C92.73933594 181.11597656 91.60367188 181.10695313 90.43359375 181.09765625 C87.62218701 181.07403098 84.81119702 181.04109013 82 181 C81.99857498 180.41197601 81.99714996 179.82395203 81.99568176 179.21810913 C81.9759613 173.08552694 81.92163751 166.95393695 81.84741211 160.82177734 C81.82424691 158.53474044 81.80983989 156.24759708 81.80444336 153.96044922 C81.79514342 150.6682716 81.75412726 147.37776501 81.70703125 144.0859375 C81.7109639 143.06696381 81.71489655 142.04799011 81.71894836 140.99813843 C81.62647549 136.47623601 81.54394133 133.03211444 78.70581055 129.36962891 C75.71244131 126.69837199 75.71244131 126.69837199 72 126 C71.21399414 125.93224365 70.42798828 125.8644873 69.61816406 125.79467773 C68.75932617 125.75802002 67.90048828 125.7213623 67.015625 125.68359375 C66.08105469 125.64169922 65.14648438 125.59980469 64.18359375 125.55664062 C63.21550781 125.51732422 62.24742187 125.47800781 61.25 125.4375 C59.77466797 125.37272461 59.77466797 125.37272461 58.26953125 125.30664062 C55.84648725 125.20077948 53.4233446 125.09869829 51 125 C50.39232385 121.12554229 49.78914886 117.2503981 49.1875 113.375 C49.00517822 112.20396729 48.82285645 111.03293457 48.63500977 109.82641602 C47.75531568 104.12132412 46.90574573 98.41724093 46.171875 92.69140625 C45.98395386 91.23178467 45.98395386 91.23178467 45.79223633 89.74267578 C45.56278575 87.92823175 45.34076208 86.11282639 45.12768555 84.29638672 C44.0848839 76.06407808 42.80007716 68.3768052 36 63 C31.31305399 60.20009475 27.75256477 59.567913 22.3125 59.5625 C21.00925781 59.54316406 19.70601562 59.52382813 18.36328125 59.50390625 C15.03983773 59.67237828 15.03983773 59.67237828 13.3140564 61.54859924 C11.5119094 64.91054363 11.58068762 67.99791936 11.61181641 71.71850586 C11.60393097 72.87776329 11.60393097 72.87776329 11.59588623 74.06044006 C11.58269561 76.6121143 11.59142163 79.16316329 11.6015625 81.71484375 C11.59954128 83.49076965 11.59662945 85.26669474 11.59286499 87.0426178 C11.58844274 90.76408798 11.5948687 94.48534206 11.60888672 98.20678711 C11.62596614 102.97285923 11.61614477 107.73842406 11.59816933 112.5044775 C11.58731816 116.17195951 11.59078416 119.83932167 11.5985527 123.50680733 C11.60055167 125.26385114 11.59810609 127.0209059 11.59111404 128.77793694 C11.58347896 131.23628335 11.59513262 133.69381382 11.61181641 136.15209961 C11.60574371 136.87589813 11.59967102 137.59969666 11.59341431 138.34542847 C11.6606331 143.70280665 12.93504068 146.95489606 16.7265625 150.70996094 C17.35304687 151.21301758 17.97953125 151.71607422 18.625 152.234375 C19.6766333 153.08866089 19.6766333 153.08866089 20.74951172 153.96020508 C21.49217285 154.5508374 22.23483398 155.14146973 23 155.75 C23.7645752 156.36834717 24.52915039 156.98669434 25.31689453 157.6237793 C26.8445588 158.85882645 28.37462299 160.09091174 29.90722656 161.31982422 C32.57916015 163.46497668 35.22766154 165.6370784 37.875 167.8125 C40.47931786 169.94152003 43.08476351 172.06913946 45.69140625 174.1953125 C46.59761719 174.93523437 47.50382812 175.67515625 48.4375 176.4375 C49.33597656 177.17097656 50.23445313 177.90445313 51.16015625 178.66015625 C53.17878027 180.32336916 55.18605104 181.99550395 57.18359375 183.68359375 C57.71605713 184.13226807 58.24852051 184.58094238 58.79711914 185.04321289 C60.29161916 186.30462363 61.78263362 187.57016062 63.2734375 188.8359375 C64.17320312 189.55007813 65.07296875 190.26421875 66 191 C66.70769531 191.57621094 67.41539062 192.15242187 68.14453125 192.74609375 C72.71556877 194.75334826 77.37246309 194.57687857 82.3125 194.6875 C83.33923828 194.72166016 84.36597656 194.75582031 85.42382812 194.79101562 C87.94910963 194.87323409 90.4740554 194.94246936 93 195 C93 197.64 93 200.28 93 203 C89.50016197 203.08803772 86.00061362 203.14073608 82.5 203.1875 C81.51773438 203.21263672 80.53546875 203.23777344 79.5234375 203.26367188 C69.26550559 203.36625119 63.26699851 200.79698288 55.5625 194.1875 C54.53769531 193.33188477 54.53769531 193.33188477 53.4921875 192.45898438 C52.05009361 191.2546127 50.61150175 190.04603656 49.17626953 188.83349609 C45.64363326 185.85726787 42.06926114 182.93209835 38.5 180 C37.08460748 178.83206511 35.66924291 177.66409634 34.25390625 176.49609375 C30.69077671 173.56141395 27.10871286 170.65089121 23.52001953 167.74755859 C6.82699813 154.2404972 6.82699813 154.2404972 4 150 C3.75952354 147.31995798 3.62726502 144.73445797 3.5859375 142.05078125 C3.56657135 141.27816452 3.5472052 140.50554779 3.5272522 139.70951843 C3.46751521 137.2439576 3.42109514 134.77834993 3.375 132.3125 C3.33681475 130.6399537 3.29776269 128.96742695 3.2578125 127.29492188 C3.16018776 123.19671683 3.0805749 119.09871775 3 115 C-3.27 115 -9.54 115 -16 115 C-14.43972479 98.81843618 -12.21969102 82.749645 -9.92376709 66.65948486 C-9.43103237 63.20108103 -8.94227016 59.74211614 -8.453125 56.28320312 C-7.59028492 50.1854514 -6.72263975 44.08839612 -5.85274124 37.99164772 C-5.2771335 33.95436391 -4.70563246 29.91652397 -4.13757515 25.87817097 C-3.68422768 22.65686924 -3.22851017 19.43590214 -2.7734375 16.21484375 C-2.60889069 15.03853897 -2.44434387 13.86223419 -2.27481079 12.65028381 C-2.12144257 11.56807053 -1.96807434 10.48585724 -1.81005859 9.37084961 C-1.67715424 8.42600204 -1.54424988 7.48115448 -1.40731812 6.50767517 C-1.04766312 4.29344046 -0.58435625 2.16426109 0 0 Z " fill="#F9F6EF" transform="translate(192,350)"/>
<path d="M0 0 C59.28571429 0 59.28571429 0 72.8125 12.625 C81.03298317 23.81399098 80.11794897 38.78847003 78.52734375 51.89453125 C77.00131407 59.74398932 74.3412266 65.64541581 67.9375 70.59375 C62.79027778 74 62.79027778 74 59 74 C59.49886719 75.02351563 59.99773438 76.04703125 60.51171875 77.1015625 C65.27287527 86.96484524 69.79585445 96.92474966 74.17373657 106.96307373 C74.76610179 108.32069515 75.36031994 109.6775096 75.95639038 111.0335083 C76.80097056 112.95736413 77.6379348 114.8843497 78.47265625 116.8125 C78.96000244 117.93269531 79.44734863 119.05289063 79.94946289 120.20703125 C81 123 81 123 81 126 C72.42 126 63.84 126 55 126 C50.42236108 116.3257287 46.04108879 106.60948654 41.91772461 96.73364258 C41.04318357 94.64128503 40.16145029 92.55204857 39.27929688 90.46289062 C38.7183257 89.12517785 38.15776221 87.78729402 37.59765625 86.44921875 C37.09758057 85.25643311 36.59750488 84.06364746 36.08227539 82.8347168 C35 80 35 80 35 78 C31.7 78 28.4 78 25 78 C25 93.51 25 109.02 25 125 C16.75 125 8.5 125 0 125 C0 83.75 0 42.5 0 0 Z " fill="#122944" transform="translate(630,370)"/>
<path d="M0 0 C8.25 0 16.5 0 25 0 C30.72960905 11.17805691 35.86089838 22.54836126 40.875 34.0625 C41.63379836 35.79636238 42.39291189 37.53008687 43.15234375 39.26367188 C48.49691688 51.48307536 53.74593734 63.74052046 59 76 C59.33 50.92 59.66 25.84 60 0 C67.26 0 74.52 0 82 0 C82 41.25 82 82.5 82 125 C73.42 125 64.84 125 56 125 C47.77130509 107.15309404 39.54376041 89.30621658 31.5 71.375 C31.22346588 70.75976471 30.94693176 70.14452942 30.66201782 69.51065063 C29.88754288 67.7865174 29.11558011 66.06125635 28.34375 64.3359375 C27.91255859 63.37220215 27.48136719 62.4084668 27.03710938 61.41552734 C26 59 26 59 25 56 C24.67 78.77 24.34 101.54 24 125 C16.08 125 8.16 125 0 125 C0 83.75 0 42.5 0 0 Z " fill="#122843" transform="translate(817,370)"/>
<path d="M0 0 C1.29349365 0.00523682 2.5869873 0.01047363 3.91967773 0.01586914 C4.9496714 0.01799156 4.9496714 0.01799156 6.00047302 0.02015686 C8.20144949 0.0257706 10.40232557 0.03832532 12.60327148 0.05102539 C14.09220231 0.05603863 15.58113473 0.06060184 17.07006836 0.06469727 C20.72700501 0.07489508 24.38387409 0.09385462 28.04077148 0.11352539 C31.71585992 13.09569299 35.12851864 26.13079734 38.41967773 39.21508789 C38.91843301 41.19131987 39.41737394 43.16750501 39.91648865 45.14364624 C41.21718241 50.29562387 42.51530214 55.44824657 43.81286621 60.60101318 C45.12611083 65.81393516 46.44199901 71.02618972 47.75756836 76.23852539 C51.86745292 92.52634023 55.97188745 108.81541404 60.04077148 125.11352539 C51.46077148 125.11352539 42.88077148 125.11352539 34.04077148 125.11352539 C33.05077148 121.19477539 32.06077148 117.27602539 31.04077148 113.23852539 C30.7275293 112.00376465 30.41428711 110.76900391 30.09155273 109.49682617 C29.84791992 108.52729004 29.60428711 107.55775391 29.35327148 106.55883789 C29.1019043 105.56384277 28.85053711 104.56884766 28.59155273 103.54370117 C28.04077148 101.11352539 28.04077148 101.11352539 28.04077148 99.11352539 C12.69577148 99.60852539 12.69577148 99.60852539 -2.95922852 100.11352539 C-4.93922852 108.36352539 -6.91922852 116.61352539 -8.95922852 125.11352539 C-17.20922852 125.11352539 -25.45922852 125.11352539 -33.95922852 125.11352539 C-33.33952186 120.15587217 -32.75887978 115.80797401 -31.58325195 111.04785156 C-31.30450729 109.90998703 -31.02576263 108.7721225 -30.73857117 107.59977722 C-30.43498184 106.3809938 -30.13139252 105.16221039 -29.81860352 103.90649414 C-29.49617048 102.59862379 -29.17410215 101.29066348 -28.85237122 99.98262024 C-27.98919529 96.4789354 -27.12002855 92.97676388 -26.24931717 89.47494507 C-25.70871472 87.29895731 -25.16972829 85.12257585 -24.63131714 82.94604492 C-19.65279942 62.8206597 -14.62054386 42.70878089 -9.52172852 22.61352539 C-9.10413269 20.9619191 -9.10413269 20.9619191 -8.67810059 19.27694702 C-7.90193992 16.21106613 -7.12095889 13.14646067 -6.33813477 10.08227539 C-5.99550346 8.72613884 -5.99550346 8.72613884 -5.64595032 7.34260559 C-3.79593683 0.14562418 -3.79593683 0.14562418 0 0 Z " fill="#122843" transform="translate(560.959228515625,369.886474609375)"/>
<path d="M0 0 C8.25 0 16.5 0 25 0 C25.0679721 12.1792066 25.12292912 24.35828571 25.15543652 36.53763962 C25.17104409 42.19394774 25.19219221 47.85011854 25.22631836 53.50634766 C25.25908744 58.97230618 25.27688987 64.4381332 25.28463173 69.90418243 C25.29014387 71.9820182 25.30090715 74.05984737 25.31719017 76.13762665 C25.53343625 104.8940492 25.53343625 104.8940492 16 117 C6.66055812 126.31935706 -5.51057232 128.27567155 -18.11621094 128.32128906 C-24.43965975 128.22652697 -29.45735187 127.17352417 -35 124 C-36.5778125 123.13375 -36.5778125 123.13375 -38.1875 122.25 C-46.14784514 115.88172389 -51.41182812 108.1685097 -53 98 C-53.14098268 94.84239163 -53.12630545 91.68834842 -53.11352539 88.52807617 C-53.11367142 87.58124969 -53.11381744 86.63442322 -53.1139679 85.65890503 C-53.11327258 82.53690277 -53.10549801 79.41496056 -53.09765625 76.29296875 C-53.09579072 74.12535128 -53.09436745 71.9577334 -53.09336853 69.79011536 C-53.08955402 64.09045239 -53.07973281 58.39081499 -53.06866455 52.69116211 C-53.05842753 46.87288763 -53.053866 41.05460902 -53.04882812 35.23632812 C-53.0381096 23.82420572 -53.0205214 12.41210899 -53 1 C-45.08 1 -37.16 1 -29 1 C-28.98541748 3.71476562 -28.97083496 6.42953125 -28.95581055 9.2265625 C-28.90540051 18.21124963 -28.83879401 27.19576462 -28.76428509 36.18028259 C-28.71961948 41.62586986 -28.68035483 47.07138297 -28.65356445 52.51708984 C-28.62749366 57.7756875 -28.58706423 63.0339992 -28.53681374 68.29241943 C-28.5201706 70.29535354 -28.50864046 72.29833708 -28.50238609 74.30133057 C-28.49271729 77.11395007 -28.46462466 79.9258422 -28.43237305 82.73828125 C-28.43452568 83.97151375 -28.43452568 83.97151375 -28.4367218 85.22966003 C-28.34723578 90.77294154 -27.31508642 94.94088286 -25 100 C-21.67018205 103.17125519 -19.00269536 104.25743055 -14.5 104.5 C-10.06129162 104.29790029 -7.41088431 102.91173051 -4 100 C-0.45310863 94.67966295 -0.83700495 89.1814979 -0.79467773 82.98706055 C-0.78477814 82.08900192 -0.77487854 81.1909433 -0.76467896 80.26567078 C-0.73316637 77.30604665 -0.70834708 74.34640648 -0.68359375 71.38671875 C-0.66301538 69.33119802 -0.64201867 67.27568143 -0.62062073 65.22016907 C-0.56549129 59.81647099 -0.5160418 54.4127353 -0.46777344 49.00897217 C-0.41749171 43.49227562 -0.36184049 37.97563352 -0.30664062 32.45898438 C-0.1991707 21.63936776 -0.09819734 10.81970475 0 0 Z " fill="#122944" transform="translate(776,370)"/>
<path d="M0 0 C8.58 0 17.16 0 26 0 C30.4705711 18.82345727 34.49077822 37.71628578 38.39599609 56.6640625 C38.80822531 58.66146719 39.22049678 60.65886316 39.6328125 62.65625 C39.83155975 63.62191895 40.03030701 64.58758789 40.2350769 65.58251953 C41.18299775 70.16331721 42.15556057 74.73575146 43.19433594 79.296875 C43.38172333 80.12038452 43.56911072 80.94389404 43.76217651 81.7923584 C44.11164644 83.31510919 44.46587406 84.83677984 44.82595825 86.35705566 C45.65828069 89.97229934 46.19576751 93.28673247 46 97 C46.66 97 47.32 97 48 97 C48.03883301 96.36255859 48.07766602 95.72511719 48.11767578 95.06835938 C48.6912348 87.35640918 50.15227532 80.02918148 51.875 72.5 C52.50308258 69.70511494 53.12617255 66.90911869 53.75 64.11328125 C53.92095184 63.35038284 54.09190369 62.58748444 54.26803589 61.8014679 C55.84091858 54.7649315 57.36157941 47.7175059 58.875 40.66796875 C59.12226837 39.51664459 59.36953674 38.36532043 59.6242981 37.17910767 C60.62459808 32.5192093 61.62412885 27.8591476 62.62200928 23.19873047 C63.32722529 19.90690029 64.03452565 16.61552386 64.7421875 13.32421875 C65.06207642 11.8263105 65.06207642 11.8263105 65.38842773 10.29814148 C65.58621826 9.37950821 65.78400879 8.46087494 65.98779297 7.5144043 C66.15987274 6.71157516 66.33195251 5.90874603 66.50924683 5.08158875 C67 3 67 3 68 0 C76.25 0 84.5 0 93 0 C91.87511335 8.99909319 91.87511335 8.99909319 90.93115234 12.86547852 C90.71883469 13.74491623 90.50651703 14.62435394 90.2877655 15.53044128 C90.05616226 16.47043472 89.82455902 17.41042816 89.5859375 18.37890625 C89.33922806 19.39636429 89.09251862 20.41382233 88.83833313 21.46211243 C88.30203258 23.67204253 87.76375655 25.88149396 87.22372437 28.09051514 C85.75887646 34.08295504 84.30842156 40.07888585 82.85546875 46.07421875 C82.54791153 47.34142761 82.24035431 48.60863647 81.92347717 49.91424561 C78.3011112 64.84654147 74.74749834 79.79520134 71.19409943 94.74403 C70.35486925 98.27418465 69.51504275 101.80419744 68.67529297 105.33422852 C67.11600968 111.88928356 65.55802793 118.44464599 64 125 C52.45 125 40.9 125 29 125 C27.90042969 120.27558594 26.80085938 115.55117188 25.66796875 110.68359375 C24.37047714 105.10964032 23.07284768 99.53571899 21.775177 93.96180725 C21.19026045 91.44935724 20.60538295 88.93689813 20.02050781 86.42443848 C16.17414335 69.90214981 12.32744969 53.37995504 8.45703125 36.86328125 C8.19802536 35.75790512 7.93901947 34.65252899 7.67216492 33.51365662 C6.49529048 28.49242586 5.31716319 23.47149255 4.13745117 18.45092773 C3.7270422 16.70166217 3.31664125 14.95239472 2.90625 13.203125 C2.72475906 12.43257278 2.54326813 11.66202057 2.35627747 10.86811829 C1.5087627 7.25312019 0.72843809 3.64219045 0 0 Z " fill="#122843" transform="translate(441,370)"/>
<path d="M0 0 C12.04490275 6.56641473 19.10295775 16.27938111 23.0078125 29.26953125 C25.21830133 40.21770705 22.90724963 51.65211791 17.234375 61.1328125 C10.87733666 70.35649025 3.17128348 75.47630188 -7.46484375 78.93359375 C-18.10801357 80.88123481 -28.48709137 79.56238217 -37.78515625 74 C-47.19484697 67.41501567 -54.5040656 57.82191463 -56.578125 46.3203125 C-57.54573374 32.09170524 -55.14280112 20.8778334 -46.125 9.484375 C-34.86224368 -3.03587353 -15.32848635 -6.64234408 0 0 Z " fill="#122843" transform="translate(360.578125,547.6796875)"/>
<path d="M0 0 C8.33500088 5.7138442 14.07623677 14.0232744 16 24 C17.08768857 36.70956646 15.14243851 47.01832833 7 57 C1.00341494 63.45675466 -7.07875105 67.51057427 -15.8828125 68.23828125 C-26.33863611 68.47763143 -33.19788385 66.6550978 -41.25 59.875 C-50.06141148 51.43765788 -53.92166883 42.70077607 -54.375 30.6875 C-54.16840086 19.53114624 -49.8749953 11.36211803 -42.4453125 3.31640625 C-30.80132309 -7.85402379 -13.43240468 -7.72022098 0 0 Z " fill="#122842" transform="translate(186,558)"/>
<path d="M0 0 C25 0 25 0 35 4 C40.44730485 10.22549126 41.15676707 14.7996183 41.23828125 22.984375 C41.246353 23.75879944 41.25442474 24.53322388 41.26274109 25.33111572 C41.27654712 26.96844264 41.28728478 28.60579791 41.29516602 30.24316406 C41.30667308 31.90731314 41.32710492 33.57142568 41.35668945 35.23535156 C41.39962021 37.65194533 41.41556971 40.06744598 41.42578125 42.484375 C41.44328934 43.21799255 41.46079742 43.95161011 41.47883606 44.7074585 C41.45138272 51.34407989 39.33622956 56.60062911 34.6875 61.375 C24.06084689 67.80041816 12.24766007 65 0 65 C0 43.55 0 22.1 0 0 Z " fill="#122945" transform="translate(542,525)"/>
<path d="M0 0 C0.66 0.33 1.32 0.66 2 1 C2 88.12 2 175.24 2 265 C21.8 265 41.6 265 62 265 C74.19149975 265.12596384 86.37941253 265.25627616 98.56921387 265.46356201 C102.39504445 265.52748647 106.220964 265.5856551 110.046875 265.64453125 C117.3646722 265.75788131 124.68236231 265.87673472 132 266 C132 267.98 132 269.96 132 272 C126.59704891 273.45167452 121.3888834 274.44097544 115.828125 275 C115.07196899 275.0806218 114.31581299 275.16124359 113.53674316 275.24430847 C111.10837881 275.50179862 108.67926481 275.75116178 106.25 276 C104.57059551 276.17578246 102.89123362 276.3519724 101.21191406 276.52856445 C97.93328925 276.87225651 94.65433572 277.2124763 91.375 277.54931641 C87.82205363 277.91430471 84.27019118 278.28857736 80.71875 278.66796875 C79.06255352 278.84165689 77.4063098 279.01489581 75.75 279.1875 C75.08258789 279.25904297 74.41517578 279.33058594 73.72753906 279.40429688 C71.48656481 279.63048046 69.24527512 279.82100245 67 280 C65.92532471 280.08612549 64.85064941 280.17225098 63.7434082 280.26098633 C50.41819616 281.18540882 37.08283353 281.25521841 23.72973633 281.29516602 C20.32809248 281.30640243 16.9270722 281.34109575 13.52565289 281.38033772 C10.2502381 281.4126691 6.97476876 281.4172576 3.69921875 281.42578125 C2.48264084 281.44328934 1.26606293 281.46079742 0.01261902 281.47883606 C-1.67645821 281.47444771 -1.67645821 281.47444771 -3.3996582 281.4699707 C-4.38762894 281.47583694 -5.37559967 281.48170319 -6.39350891 281.48774719 C-9.73139612 280.86313538 -10.9389775 279.64683239 -13 277 C-12.91669008 271.48303182 -9.23486798 266.50209236 -6.69140625 261.765625 C-3.12961906 254.4135549 -2.71264392 246.98661472 -2.875 238.9375 C-2.88402344 238.07189453 -2.89304687 237.20628906 -2.90234375 236.31445312 C-2.92560277 234.20951221 -2.96145992 232.10471658 -3 230 C-2.34 230.66 -1.68 231.32 -1 232 C0.89163465 230.10836535 0.12286842 227.34202425 0.12908131 224.82492918 C0.12616847 223.92903296 0.12325563 223.03313675 0.12025452 222.11009216 C0.12153615 220.69385963 0.12153615 220.69385963 0.12284368 219.24901634 C0.12450137 216.05979091 0.11897241 212.87061714 0.11352539 209.68139648 C0.11324356 207.40541587 0.11340118 205.12943516 0.1139679 202.85345459 C0.11425601 196.65329042 0.10835702 190.45314541 0.10139394 184.25298572 C0.09516273 177.78137479 0.09455679 171.30976348 0.09336853 164.83815002 C0.09060881 153.96900052 0.08435326 143.09985891 0.07543945 132.23071289 C0.06626608 121.03344763 0.05918488 109.83618428 0.05493164 98.63891602 C0.05466892 97.94918276 0.05440619 97.25944951 0.05413551 96.54881524 C0.05283051 93.08876543 0.05156679 89.6287156 0.05032361 86.16866577 C0.03995009 57.4457724 0.02225687 28.72288648 0 0 Z " fill="#0E1F36" transform="translate(396,344)"/>
<path d="M0 0 C26 0 26 0 36 5 C40.29452439 9.60127613 40.34700344 13.92752902 40.4375 20.0625 C40.45321045 21.08984253 40.45321045 21.08984253 40.46923828 22.13793945 C40.38695654 26.80601958 39.44925476 30.04037147 37 34 C34.3125 36.375 34.3125 36.375 32 38 C32.59861234 41.55187165 33.54835766 44.5308912 35.06640625 47.79296875 C35.46923828 48.67017578 35.87207031 49.54738281 36.28710938 50.45117188 C36.70798828 51.35416016 37.12886719 52.25714844 37.5625 53.1875 C38.4004988 54.9919314 39.23530241 56.79785124 40.06640625 58.60546875 C40.43709229 59.40106201 40.80777832 60.19665527 41.18969727 61.01635742 C42 63 42 63 42 65 C37.38 65 32.76 65 28 65 C25.38865155 59.97817605 23.00990313 54.87655946 20.75 49.6875 C20.22921875 48.49511719 19.7084375 47.30273438 19.171875 46.07421875 C18 43 18 43 18 40 C16.35 40 14.7 40 13 40 C13 48.25 13 56.5 13 65 C8.71 65 4.42 65 0 65 C0 43.55 0 22.1 0 0 Z " fill="#112741" transform="translate(593,525)"/>
<path d="M0 0 C4.29 0 8.58 0 13 0 C13 8.91 13 17.82 13 27 C18.28 27 23.56 27 29 27 C29 18.09 29 9.18 29 0 C33.29 0 37.58 0 42 0 C42 21.45 42 42.9 42 65 C37.71 65 33.42 65 29 65 C29 56.42 29 47.84 29 39 C23.72 39 18.44 39 13 39 C13 47.58 13 56.16 13 65 C8.71 65 4.42 65 0 65 C0 43.55 0 22.1 0 0 Z " fill="#142B47" transform="translate(440,525)"/>
<path d="M0 0 C5.61 0 11.22 0 17 0 C19.08999579 8.03098948 21.17691784 16.06275835 23.25842285 24.09595203 C24.22504424 27.82594618 25.19301457 31.55557939 26.1640625 35.28442383 C27.10091463 38.88215858 28.03423003 42.4807937 28.96508789 46.08008385 C29.32106402 47.45394317 29.67831888 48.82747182 30.03686523 50.20066261 C30.53836529 52.12223744 31.03492265 54.04510019 31.53125 55.96801758 C31.81548828 57.06277908 32.09972656 58.15754059 32.39257812 59.28547668 C33 62 33 62 33 65 C28.38 65 23.76 65 19 65 C17 55.5 17 55.5 17 51 C11.39 51 5.78 51 0 51 C-0.309375 52.93875 -0.61875 54.8775 -0.9375 56.875 C-1.875 62.75 -1.875 62.75 -3 65 C-7.29 65 -11.58 65 -16 65 C-15.36980829 58.92867281 -14.17468234 53.20646253 -12.63671875 47.3046875 C-12.4034639 46.39478058 -12.17020905 45.48487366 -11.92988586 44.5473938 C-11.43709916 42.62898143 -10.9419558 40.71117304 -10.44458008 38.79394531 C-9.69544169 35.90561943 -8.95351245 33.01552005 -8.21289062 30.125 C-5.61937676 20.0381359 -2.9188758 9.99766959 0 0 Z " fill="#112843" transform="translate(655,525)"/>
<path d="M0 0 C4.29 0 8.58 0 13 0 C13.01458252 1.49893799 13.02916504 2.99787598 13.04418945 4.54223633 C13.1020848 10.09423899 13.17931836 15.64583233 13.26245117 21.19750977 C13.29574176 23.60206467 13.32376067 26.00669851 13.34643555 28.41137695 C13.3799051 31.86443779 13.43221797 35.31677261 13.48828125 38.76953125 C13.49467117 39.84773636 13.5010611 40.92594147 13.50764465 42.03681946 C13.53733589 43.53803596 13.53733589 43.53803596 13.56762695 45.06958008 C13.57873001 45.95116287 13.58983307 46.83274567 13.60127258 47.74104309 C14.08226349 50.46605693 14.79192003 51.3723186 17 53 C19.74243563 53.36270484 19.74243563 53.36270484 22.6875 53.1875 C24.17830078 53.14689453 24.17830078 53.14689453 25.69921875 53.10546875 C26.45847656 53.07066406 27.21773437 53.03585937 28 53 C28.87550021 49.96197833 29.1483632 47.2050114 29.20532227 44.04785156 C29.22526749 43.06713684 29.24521271 42.08642212 29.26576233 41.07598877 C29.29083107 39.4992337 29.29083107 39.4992337 29.31640625 37.890625 C29.33718735 36.80867859 29.35796844 35.72673218 29.37937927 34.61199951 C29.44472931 31.15806387 29.50369229 27.70405263 29.5625 24.25 C29.60569904 21.90754429 29.64931378 19.5650962 29.69335938 17.22265625 C29.80039587 11.48184818 29.90170448 5.74096412 30 0 C33.96 0 37.92 0 42 0 C42.0989633 7.72294383 42.1715154 15.44551757 42.21972656 23.16894531 C42.23982715 25.79563833 42.26711204 28.42228669 42.30175781 31.04882812 C42.35034164 34.82693512 42.37298509 38.60444984 42.390625 42.3828125 C42.41127014 43.55490265 42.43191528 44.7269928 42.45318604 45.93460083 C42.45492223 52.25984633 42.36046133 56.25073907 38 61 C32.09185986 65.55419136 27.98649134 66.16183843 20.625 66.25 C19.33851563 66.27578125 18.05203125 66.3015625 16.7265625 66.328125 C11.2091494 65.84231504 8.09131591 64.11611854 4.25 60.1875 C-0.4913424 53.47059826 -0.27087227 47.19689637 -0.1953125 39.2578125 C-0.1924826 38.13430389 -0.18965271 37.01079529 -0.18673706 35.85324097 C-0.17557303 32.27705073 -0.15047501 28.7011141 -0.125 25.125 C-0.11496533 22.69531613 -0.10584033 20.26562831 -0.09765625 17.8359375 C-0.075646 11.8905278 -0.0411418 5.94530685 0 0 Z " fill="#0B182B" transform="translate(694,525)"/>
<path d="M0 0 C4.41856933 2.74750947 7.34165853 7.04511647 8.68359375 12.046875 C8.7600554 14.3789552 8.77502674 16.71533378 8.68359375 19.046875 C4.39359375 19.046875 0.10359375 19.046875 -4.31640625 19.046875 C-4.78046875 17.3453125 -4.78046875 17.3453125 -5.25390625 15.609375 C-5.94565156 12.25912401 -5.94565156 12.25912401 -7.31640625 11.046875 C-11.98201001 10.65130617 -11.98201001 10.65130617 -16.31640625 12.109375 C-18.01031795 15.39132891 -17.31120681 17.57438764 -16.31640625 21.046875 C-14.0032678 22.99647694 -11.40382668 24.07180869 -8.62890625 25.234375 C4.34388053 31.03022424 4.34388053 31.03022424 7.53125 35.828125 C8.86962428 39.56649926 9.11706213 42.57976044 9.12109375 46.546875 C9.14042969 47.8153125 9.15976562 49.08375 9.1796875 50.390625 C8.42847713 55.92710455 6.07245783 58.95351392 1.74609375 62.359375 C-4.53836262 65.82223871 -11.84219813 65.93195978 -18.82421875 64.55078125 C-23.73518203 63.11639098 -26.65506066 61.62438941 -29.31640625 57.046875 C-31.22526308 52.56106145 -31.31640625 50.15107334 -31.31640625 45.046875 C-27.35640625 45.046875 -23.39640625 45.046875 -19.31640625 45.046875 C-17.83140625 48.511875 -17.83140625 48.511875 -16.31640625 52.046875 C-12.68640625 52.046875 -9.05640625 52.046875 -5.31640625 52.046875 C-4.91365122 48.67380161 -4.63285354 46.31028796 -5.31640625 43.046875 C-7.5460873 40.58653729 -10.32829224 39.41794561 -13.31640625 38.046875 C-15.4031746 37.05406302 -17.48638576 36.05374766 -19.56640625 35.046875 C-20.5615625 34.593125 -21.55671875 34.139375 -22.58203125 33.671875 C-26.57788096 31.2971986 -28.69471834 28.44567279 -30.56640625 24.234375 C-32.16355937 17.44647424 -31.91054064 11.12058643 -28.31640625 5.046875 C-20.88894299 -3.04783083 -10.08744706 -4.44602656 0 0 Z " fill="#11253F" transform="translate(893.31640625,525.953125)"/>
<path d="M0 0 C4.32593547 2.5562346 5.96312322 5.26914143 7.5078125 9.89453125 C8.2393466 13.02387155 8.20009274 15.79851623 8 19 C3.71 19 -0.58 19 -5 19 C-5.28875 17.865625 -5.5775 16.73125 -5.875 15.5625 C-6.24625 14.386875 -6.6175 13.21125 -7 12 C-10.04983996 10.47508002 -12.6423369 10.76437452 -16 11 C-17.85103431 11.95394779 -17.85103431 11.95394779 -19 14 C-19.31034119 16.69274893 -19.44427049 19.14991509 -19.43359375 21.84375 C-19.44145653 22.99200256 -19.44145653 22.99200256 -19.44947815 24.16345215 C-19.45589682 25.78066801 -19.4545633 27.39793056 -19.44604492 29.01513672 C-19.43752956 31.49140347 -19.46630278 33.96536719 -19.49804688 36.44140625 C-19.49965886 38.01302014 -19.49908141 39.58463812 -19.49609375 41.15625 C-19.50732773 41.89693726 -19.51856171 42.63762451 -19.53013611 43.40075684 C-19.47387358 47.61888165 -19.47387358 47.61888165 -17.11645508 50.97192383 C-14.6318065 52.17885141 -12.99757716 52.30871664 -10.25 52.1875 C-9.05117188 52.14689453 -9.05117188 52.14689453 -7.828125 52.10546875 C-7.22484375 52.07066406 -6.6215625 52.03585937 -6 52 C-5.67 50.02 -5.34 48.04 -5 46 C-0.71 46 3.58 46 8 46 C8.31571333 51.26188885 7.89914347 54.55464669 5 59 C0.11881339 63.94786949 -3.82500025 65.16097298 -10.6875 65.25 C-17.04481324 65.18446069 -22.54741816 65.08868504 -27.51953125 60.640625 C-32.6597725 54.89303536 -33.31553355 49.61577212 -33.3359375 42.26171875 C-33.3459227 41.00232231 -33.3459227 41.00232231 -33.35610962 39.71748352 C-33.36621029 37.94489727 -33.37092744 36.1722732 -33.37060547 34.3996582 C-33.37496914 31.7065462 -33.41128822 29.01508702 -33.44921875 26.32226562 C-33.45508962 24.59375556 -33.4590572 22.86523777 -33.4609375 21.13671875 C-33.47530853 20.34061691 -33.48967957 19.54451508 -33.50448608 18.72428894 C-33.45872262 13.0417177 -32.14547871 8.76258961 -29 4 C-21.24138717 -3.55967404 -9.74980805 -3.97951349 0 0 Z " fill="#10243D" transform="translate(846,526)"/>
<path d="M0 0 C4.29 0 8.58 0 13 0 C16.3 8.25 19.6 16.5 23 25 C25.97 16.75 28.94 8.5 32 0 C36.62 0 41.24 0 46 0 C44.3732873 5.43602915 42.3840978 10.42299402 39.8984375 15.52734375 C31.80881925 32.30504507 28.02337345 46.01181821 29 65 C24.71 65 20.42 65 16 65 C16.10183594 63.45699219 16.20367187 61.91398438 16.30859375 60.32421875 C16.92218843 40.48004408 10.86157161 25.57017391 2.26123047 7.98640442 C0.87432101 5.11842743 0 3.23195806 0 0 Z " fill="#12263F" transform="translate(489,525)"/>
<path d="M0 0 C4.29 0 8.58 0 13 0 C13 17.49 13 34.98 13 53 C19.93 53 26.86 53 34 53 C34 56.96 34 60.92 34 65 C22.78 65 11.56 65 0 65 C0 43.55 0 22.1 0 0 Z " fill="#122C49" transform="translate(747,525)"/>
<path d="M0 0 C4.86182377 2.43091188 7.80741607 5.71281586 11 10 C12.6734751 15.02042529 13.13621483 20.38538981 10.98828125 25.328125 C8.41699601 29.49777674 5.86931466 33.10985016 1.375 35.25 C-4.37839395 36.52853199 -9.05622097 35.99022705 -14.3125 33.3125 C-19.22692096 29.08381219 -21.76507169 24.77215409 -22.3125 18.3125 C-22.22229082 12.85985602 -20.25647179 8.38019479 -16.50390625 4.421875 C-11.36867424 -0.03463558 -6.57277493 -0.80045801 0 0 Z " fill="#F8F6F0" transform="translate(349,568)"/>
<path d="M0 0 C8.58 0 17.16 0 26 0 C26 0.33 26 0.66 26 1 C25.22914063 1.03738281 24.45828125 1.07476563 23.6640625 1.11328125 C22.15972656 1.21189453 22.15972656 1.21189453 20.625 1.3125 C19.12839844 1.39951172 19.12839844 1.39951172 17.6015625 1.48828125 C16.74304688 1.65714844 15.88453125 1.82601562 15 2 C12.7226499 4.81509993 12.7226499 4.81509993 13 8 C12.67 8.33 12.34 8.66 12 9 C13.13888672 9.05607422 13.13888672 9.05607422 14.30078125 9.11328125 C15.29464844 9.17902344 16.28851562 9.24476563 17.3125 9.3125 C18.29863281 9.37050781 19.28476562 9.42851563 20.30078125 9.48828125 C23 10 23 10 24.828125 11.23828125 C27.17300573 14.76341861 26.57399336 18.956249 26 23 C24.375 26.0625 24.375 26.0625 22 28 C18.75 28.8125 18.75 28.8125 16 29 C15.34 30.98 14.68 32.96 14 35 C13.34 35 12.68 35 12 35 C11.00544091 37.98367726 10.80440368 40.2004192 10.68359375 43.32421875 C10.64169922 44.35224609 10.59980469 45.38027344 10.55664062 46.43945312 C10.51732422 47.51130859 10.47800781 48.58316406 10.4375 49.6875 C10.39431641 50.77095703 10.35113281 51.85441406 10.30664062 52.97070312 C10.20053258 55.64698385 10.09975945 58.32347511 10 61 C6.7 61 3.4 61 0 61 C0 40.87 0 20.74 0 0 Z " fill="#122A46" transform="translate(594,527)"/>
<path d="M0 0 C3.01125 -0.061875 6.0225 -0.12375 9.125 -0.1875 C10.06230957 -0.21481201 10.99961914 -0.24212402 11.96533203 -0.27026367 C17.08046489 -0.32092473 20.57766897 0.14049892 25 3 C28.86346922 6.86346922 29.29841675 10.17047767 29.4375 15.4375 C29.23233042 21.64211109 28.71630027 26.45346849 24 30.875 C20.76724617 32.69342403 18.18831041 33.1220692 14.55078125 33.09765625 C13.78677002 33.09515869 13.02275879 33.09266113 12.2355957 33.09008789 C11.27097412 33.08098389 10.30635254 33.07187988 9.3125 33.0625 C4.7028125 33.0315625 4.7028125 33.0315625 0 33 C0 22.11 0 11.22 0 0 Z " fill="#F9F6EF" transform="translate(655,393)"/>
<path d="M0 0 C4.29 0 8.58 0 13 0 C13 21.45 13 42.9 13 65 C8.71 65 4.42 65 0 65 C0 43.55 0 22.1 0 0 Z " fill="#142D49" transform="translate(790,525)"/>
<path d="M0 0 C4.42534117 2.04876906 7.06595451 4.62965797 9.30859375 9.01171875 C11.09164323 14.13924521 10.39599843 18.72863661 8.8125 23.8125 C6.55344433 27.78532203 4.06228368 29.96885816 0 32 C-4.45017961 32.72791042 -8.3725755 32.92918957 -12.3671875 30.6484375 C-17.70632807 26.20893234 -19.60749369 22.53255675 -20.375 15.625 C-19.75938216 9.67402752 -17.70250943 5.62143755 -13.375 1.5 C-8.78592214 -0.53959016 -4.94412356 -0.78107489 0 0 Z " fill="#F8F6F0" transform="translate(172,573)"/>
<path d="M0 0 C3.3 0 6.6 0 10 0 C10 8.25 10 16.5 10 25 C15.61 25 21.22 25 27 25 C27 25.99 27 26.98 27 28 C23.37 28.33 19.74 28.66 16 29 C16.33 30.32 16.66 31.64 17 33 C15.515 33.495 15.515 33.495 14 34 C17.96 34 21.92 34 26 34 C26 34.33 26 34.66 26 35 C21.05 35.33 16.1 35.66 11 36 C10.67 44.25 10.34 52.5 10 61 C6.7 61 3.4 61 0 61 C0 40.87 0 20.74 0 0 Z " fill="#142C49" transform="translate(442,527)"/>
<path d="M0 0 C3.3 0 6.6 0 10 0 C10 15.84 10 31.68 10 48 C10.66 48 11.32 48 12 48 C12.391875 48.474375 12.78375 48.94875 13.1875 49.4375 C15.86612359 51.74665826 18.56076032 51.67554343 22 52 C22.33 52.99 22.66 53.98 23 55 C20.36 55 17.72 55 15 55 C15.33 55.99 15.66 56.98 16 58 C14.02 57.67 12.04 57.34 10 57 C9.67 58.32 9.34 59.64 9 61 C4.61144323 59.27592413 2.08513063 56.17026127 0 52 C-0.09039906 50.3351936 -0.11755257 48.66676579 -0.11352539 46.99951172 C-0.11344986 45.95858368 -0.11337433 44.91765564 -0.11329651 43.84518433 C-0.10813522 42.71807037 -0.10297394 41.59095642 -0.09765625 40.4296875 C-0.0962413 39.27832306 -0.09482635 38.12695862 -0.09336853 36.94070435 C-0.08775716 33.25211014 -0.0752027 29.56357595 -0.0625 25.875 C-0.05748647 23.37890712 -0.05292331 20.8828133 -0.04882812 18.38671875 C-0.03778403 12.25778927 -0.02051173 6.12890482 0 0 Z " fill="#122B47" transform="translate(696,527)"/>
<path d="M0 0 C10 0 10 0 13.08569336 2.05664062 C15.43809589 5.67359827 15.63141739 7.7969029 15.62890625 12.09375 C15.63131821 12.76289429 15.63373016 13.43203857 15.63621521 14.12145996 C15.63523979 15.53008985 15.62191848 16.93875951 15.59692383 18.34716797 C15.56258798 20.49449807 15.57627926 22.63771249 15.59570312 24.78515625 C15.58880411 26.15887155 15.57913119 27.53257631 15.56640625 28.90625 C15.55552979 30.14697266 15.54465332 31.38769531 15.53344727 32.66601562 C14.86910942 36.81805113 14.35132429 38.40112715 11 41 C7.37 41 3.74 41 0 41 C0 27.47 0 13.94 0 0 Z " fill="#F9F6F0" transform="translate(555,537)"/>
<path d="M0 0 C25 0 25 0 31 2 C30.67 2.66 30.34 3.32 30 4 C29.01 3.67 28.02 3.34 27 3 C25.0093556 2.85013589 23.01464609 2.75171962 21.01953125 2.68359375 C19.44715698 2.62643188 19.44715698 2.62643188 17.84301758 2.56811523 C16.51294678 2.52501221 15.18287598 2.48190918 13.8125 2.4375 C9.584375 2.293125 5.35625 2.14875 1 2 C1.33 13.22 1.66 24.44 2 36 C2.99 35.01 3.98 34.02 5 33 C7.6875 32.8125 7.6875 32.8125 10 33 C10.02505615 32.36908447 10.0501123 31.73816895 10.07592773 31.08813477 C10.19154137 28.24603175 10.31442316 25.40428917 10.4375 22.5625 C10.49647461 21.07266602 10.49647461 21.07266602 10.55664062 19.55273438 C10.59853516 18.60849609 10.64042969 17.66425781 10.68359375 16.69140625 C10.72025146 15.81685791 10.75690918 14.94230957 10.79467773 14.04125977 C11 12 11 12 12 11 C14.546875 10.7265625 14.546875 10.7265625 17.75 10.625 C18.79671875 10.57601562 19.8434375 10.52703125 20.921875 10.4765625 C25.11312157 11.18928717 26.37204077 12.7008506 29 16 C29.56762695 19.50512695 29.56762695 19.50512695 29.48828125 23.48828125 C29.48120651 24.19147995 29.47413177 24.89467865 29.46684265 25.6191864 C29.43899212 27.85140227 29.3762832 30.08105077 29.3125 32.3125 C29.28740451 33.83134381 29.26459352 35.3502272 29.24414062 36.86914062 C29.18920007 40.58025248 29.10299739 44.28987541 29 48 C28.67 48 28.34 48 28 48 C27.9906543 47.08186523 27.98130859 46.16373047 27.97167969 45.21777344 C27.92760069 41.80294722 27.86596268 38.38936892 27.79248047 34.97509766 C27.76429912 33.49897804 27.74307034 32.02270831 27.72900391 30.54638672 C27.70753302 28.42076943 27.66086957 26.29695121 27.609375 24.171875 C27.58842773 22.8940918 27.56748047 21.61630859 27.54589844 20.29980469 C27.2086553 17.02368259 27.2086553 17.02368259 25.58691406 14.61425781 C22.08467484 12.16384427 22.08467484 12.16384427 13 12 C13 25.86 13 39.72 13 54 C15.64 54 18.28 54 21 54 C21 54.33 21 54.66 21 55 C18.03 55.495 18.03 55.495 15 56 C14.34 57.98 13.68 59.96 13 62 C17.95 62.33 22.9 62.66 28 63 C20.21441174 68.19039218 9.35711257 65 0 65 C0 43.55 0 22.1 0 0 Z " fill="#09172E" transform="translate(542,525)"/>
<path d="M0 0 C5.61 0 11.22 0 17 0 C18.4319032 5.46065426 19.85582843 10.92330364 21.27246094 16.38793945 C21.75530812 18.24592893 22.24031509 20.10335854 22.72753906 21.96020508 C23.42824314 24.63217564 24.12110759 27.3060757 24.8125 29.98046875 C25.14060669 31.2213752 25.14060669 31.2213752 25.4753418 32.48735046 C26.48112085 36.40799153 27.28850679 39.91402258 27 44 C24.6870518 41.6870518 24.50419025 40.52095125 23.875 37.375 C23.70742188 36.55773437 23.53984375 35.74046875 23.3671875 34.8984375 C23.24601563 34.27195312 23.12484375 33.64546875 23 33 C20.67642489 32.81509993 20.67642489 32.81509993 18 35 C15 37 15 37 13 37 C11.35 31.06 9.7 25.12 8 19 C6.68 24.28 5.36 29.56 4 35 C3.01452809 31.05811234 3.05932509 29.92080354 4 26.1875 C4.99546869 21.7078909 4.9703452 18.46358794 4 14 C3.01 14.66 2.02 15.32 1 16 C0.67 13.36 0.34 10.72 0 8 C-1.65 14.6 -3.3 21.2 -5 28 C-5.33 28 -5.66 28 -6 28 C-5.55367566 21.86304034 -4.40995414 16.03846873 -3 10.0625 C-2.82178711 9.30461182 -2.64357422 8.54672363 -2.45996094 7.76586914 C-1.13626453 2.27252907 -1.13626453 2.27252907 0 0 Z " fill="#10223A" transform="translate(655,525)"/>
<path d="M0 0 C3.3 0 6.6 0 10 0 C10.26661751 7.45578171 10.49974206 14.91157647 10.7019043 22.36938477 C10.77538367 24.90612638 10.85800407 27.44262038 10.94995117 29.97875977 C11.08055269 33.6248971 11.17823039 37.27066188 11.26953125 40.91796875 C11.31721146 42.05147263 11.36489166 43.1849765 11.41401672 44.35282898 C11.5657553 52.24327245 11.5657553 52.24327245 8.62768555 56.1730957 C6.45394416 57.6843943 4.44922713 59.00216673 2 60 C0.83936396 55.74433453 1.23826608 52.3164922 2 48 C1.01 48.495 1.01 48.495 0 49 C0 32.83 0 16.66 0 0 Z " fill="#122C49" transform="translate(725,527)"/>
<path d="M0 0 C26 0 26 0 36 5 C38.1875 7.5625 38.1875 7.5625 39 10 C38.8125 11.875 38.8125 11.875 38 14 C37.4740625 15.85625 37.4740625 15.85625 36.9375 17.75 C36.628125 18.8225 36.31875 19.895 36 21 C34.68 21 33.36 21 32 21 C31.34 21.99 30.68 22.98 30 24 C29.01 24.33 28.02 24.66 27 25 C26.95101562 24.30132813 26.90203125 23.60265625 26.8515625 22.8828125 C26.77679687 21.97273437 26.70203125 21.06265625 26.625 20.125 C26.55539062 19.22007812 26.48578125 18.31515625 26.4140625 17.3828125 C26.20431868 14.82058097 26.20431868 14.82058097 24 13 C21.10776497 12.53603307 21.10776497 12.53603307 17.875 12.375 C16.23144531 12.26285156 16.23144531 12.26285156 14.5546875 12.1484375 C13.71164062 12.09945312 12.86859375 12.05046875 12 12 C12.66 11.01 13.32 10.02 14 9 C13.67 8.34 13.34 7.68 13 7 C13.99 5.68 14.98 4.36 16 3 C11.05 2.67 6.1 2.34 1 2 C1 22.13 1 42.26 1 63 C4.3 63 7.6 63 11 63 C11 55.41 11 47.82 11 40 C12.32 39.34 13.64 38.68 15 38 C15.99 38.66 16.98 39.32 18 40 C16.35 40 14.7 40 13 40 C13 48.25 13 56.5 13 65 C8.71 65 4.42 65 0 65 C0 43.55 0 22.1 0 0 Z " fill="#0E223D" transform="translate(593,525)"/>
<path d="M0 0 C1.81056204 2.71584306 2.38946293 4.01652728 3.05322266 7.07250977 C3.23325836 7.88667862 3.41329407 8.70084747 3.5987854 9.53968811 C3.78532684 10.4147551 3.97186829 11.28982208 4.1640625 12.19140625 C4.36099701 13.0924559 4.55793152 13.99350555 4.76083374 14.92185974 C5.17557957 16.82510516 5.58725834 18.72902115 5.99609375 20.63354492 C6.62360406 23.5559988 7.26017546 26.4763618 7.8984375 29.39648438 C8.30000909 31.24467661 8.70106831 33.09298025 9.1015625 34.94140625 C9.2921524 35.81849747 9.48274231 36.69558868 9.67910767 37.59925842 C9.85283905 38.41027512 10.02657043 39.22129181 10.20556641 40.05688477 C10.35941803 40.77175552 10.51326965 41.48662628 10.67178345 42.22315979 C11 44 11 44 11 46 C4.07 46 -2.86 46 -10 46 C-8.87479777 36.99838218 -8.87479777 36.99838218 -8.16796875 33.81884766 C-8.01110596 33.10516022 -7.85424316 32.39147278 -7.69262695 31.65615845 C-7.52593506 30.91626678 -7.35924316 30.17637512 -7.1875 29.4140625 C-7.01371826 28.63106781 -6.83993652 27.84807312 -6.66088867 27.04135132 C-6.29622086 25.40233163 -5.92974392 23.76371349 -5.56152344 22.12548828 C-4.99709413 19.61206002 -4.43955818 17.09717143 -3.8828125 14.58203125 C-3.52644642 12.98428467 -3.16968967 11.38662516 -2.8125 9.7890625 C-2.56246216 8.66100693 -2.56246216 8.66100693 -2.30737305 7.51016235 C-1.11544441 2.23088883 -1.11544441 2.23088883 0 0 Z " fill="#F6F4EF" transform="translate(573,401)"/>
<path d="M0 0 C8.25 0 16.5 0 25 0 C25.04523517 12.24829311 25.08190725 24.49653047 25.10362434 36.74488831 C25.11404892 42.432659 25.12818398 48.12036944 25.15087891 53.80810547 C25.17265445 59.29997345 25.1845786 64.79178357 25.18975449 70.28369141 C25.19344177 72.37598582 25.2006421 74.46827718 25.21146011 76.56054688 C25.22603755 79.49746475 25.22797532 82.43414536 25.22705078 85.37109375 C25.23783661 86.66043068 25.23783661 86.66043068 25.24884033 87.97581482 C25.23074478 93.30932884 24.48731062 97.87307643 23 103 C21 99.25 21 99.25 21 97 C21.66 97 22.32 97 23 97 C23 65.65 23 34.3 23 2 C15.74 2 8.48 2 1 2 C1 32.36 1 62.72 1 94 C0.67 94 0.34 94 0 94 C0 62.98 0 31.96 0 0 Z " fill="#071023" transform="translate(776,370)"/>
<path d="M0 0 C4.29 0 8.58 0 13 0 C13 17.49 13 34.98 13 53 C19.93 53 26.86 53 34 53 C34 56.96 34 60.92 34 65 C22.78 65 11.56 65 0 65 C0 43.55 0 22.1 0 0 Z M2 2 C2 22.13 2 42.26 2 63 C12.23 63 22.46 63 33 63 C33 60.36 33 57.72 33 55 C26.4 54.67 19.8 54.34 13 54 C12.67 36.84 12.34 19.68 12 2 C8.7 2 5.4 2 2 2 Z " fill="#0A1428" transform="translate(747,525)"/>
<path d="M0 0 C4.29 0 8.58 0 13 0 C13 21.45 13 42.9 13 65 C8.71 65 4.42 65 0 65 C0 43.55 0 22.1 0 0 Z M1 2 C1 22.13 1 42.26 1 63 C4.3 63 7.6 63 11 63 C11 42.87 11 22.74 11 2 C7.7 2 4.4 2 1 2 Z " fill="#131C2A" transform="translate(790,525)"/>
<path d="M0 0 C1.61261719 0.00386719 1.61261719 0.00386719 3.2578125 0.0078125 C4.32773437 0.00523437 5.39765625 0.00265625 6.5 0 C9.3828125 0.1328125 9.3828125 0.1328125 12.3828125 1.1328125 C12.3828125 18.2928125 12.3828125 35.4528125 12.3828125 53.1328125 C11.7228125 53.1328125 11.0628125 53.1328125 10.3828125 53.1328125 C10.3828125 36.3028125 10.3828125 19.4728125 10.3828125 2.1328125 C6.4228125 2.1328125 2.4628125 2.1328125 -1.6171875 2.1328125 C-1.6171875 18.3028125 -1.6171875 34.4728125 -1.6171875 51.1328125 C-2.2771875 51.1328125 -2.9371875 51.1328125 -3.6171875 51.1328125 C-3.64245537 44.03036251 -3.66001951 36.92792402 -3.67211914 29.82543945 C-3.67716099 27.40714078 -3.68399428 24.98884517 -3.69262695 22.57055664 C-3.70469907 19.10301967 -3.71041713 15.63552284 -3.71484375 12.16796875 C-3.72000504 11.07944107 -3.72516632 9.99091339 -3.73048401 8.86940002 C-3.73055954 7.86843796 -3.73063507 6.86747589 -3.73071289 5.83618164 C-3.7329335 4.95015762 -3.73515411 4.06413361 -3.73744202 3.15126038 C-3.55323173 0.05932784 -3.1183771 0.158246 0 0 Z " fill="#D1D6DA" transform="translate(725.6171875,522.8671875)"/>
<path d="M0 0 C4.29 0 8.58 0 13 0 C13 8.91 13 17.82 13 27 C12.67 27 12.34 27 12 27 C12 18.75 12 10.5 12 2 C8.7 2 5.4 2 2 2 C2 22.13 2 42.26 2 63 C5.3 63 8.6 63 12 63 C12 54.75 12 46.5 12 38 C12.33 38 12.66 38 13 38 C13 46.91 13 55.82 13 65 C8.71 65 4.42 65 0 65 C0 43.55 0 22.1 0 0 Z " fill="#060F1D" transform="translate(440,525)"/>
<path d="M0 0 C10.43610253 -0.36833303 10.43610253 -0.36833303 12.8359375 1.19921875 C14.37553419 3.58094383 14.36704825 5.18027531 14.3125 8 C14.30863281 8.86625 14.30476562 9.7325 14.30078125 10.625 C14 13 14 13 12 16 C9.11788698 16.96070434 7.30149956 17.10581883 4.3125 17.0625 C2.1778125 17.0315625 2.1778125 17.0315625 0 17 C0 11.39 0 5.78 0 0 Z " fill="#F8F6F1" transform="translate(606,537)"/>
<path d="M0 0 C4.29 0 8.58 0 13 0 C13 21.45 13 42.9 13 65 C8.71 65 4.42 65 0 65 C0 56.09 0 47.18 0 38 C0.33 38 0.66 38 1 38 C1 46.58 1 55.16 1 64 C4.3 64 7.6 64 11 64 C11 43.54 11 23.08 11 2 C7.7 2 4.4 2 1 2 C1 10.25 1 18.5 1 27 C0.67 27 0.34 27 0 27 C0 18.09 0 9.18 0 0 Z " fill="#121A2A" transform="translate(469,525)"/>
<path d="M0 0 C4.29 0 8.58 0 13 0 C13 16.5 13 33 13 50 C12.67 50 12.34 50 12 50 C12 34.16 12 18.32 12 2 C8.7 2 5.4 2 2 2 C2.0441685 9.2961787 2.11402181 16.59149339 2.20751953 23.88720703 C2.23571696 26.36825681 2.25693755 28.84939622 2.27099609 31.33056641 C2.29244162 34.90053147 2.33910342 38.46942028 2.390625 42.0390625 C2.39185364 43.14553131 2.39308228 44.25200012 2.39434814 45.39199829 C2.54383986 53.2812365 3.82345995 56.6469855 9.25 62.375 C9.8275 62.91125 10.405 63.4475 11 64 C7.66344848 63.75284804 6.77463411 62.76926825 4.375 60.3125 C-0.81001821 54.18625237 -0.26732626 46.82431561 -0.1953125 39.2578125 C-0.1924826 38.13430389 -0.18965271 37.01079529 -0.18673706 35.85324097 C-0.17557303 32.27705073 -0.15047501 28.7011141 -0.125 25.125 C-0.11496533 22.69531613 -0.10584033 20.26562831 -0.09765625 17.8359375 C-0.075646 11.8905278 -0.0411418 5.94530685 0 0 Z " fill="#020919" transform="translate(694,525)"/>
<path d="M0 0 C1.4540625 -0.01836914 1.4540625 -0.01836914 2.9375 -0.03710938 C9.10673086 -0.04954734 14.52915273 0.62693764 20.5 2.1875 C10.798575 4.61285625 0.49261175 2.57183122 -9.5 2.1875 C-9.5 23.6375 -9.5 45.0875 -9.5 67.1875 C-10.16 67.1875 -10.82 67.1875 -11.5 67.1875 C-11.52312635 58.5994428 -11.54091658 50.01139851 -11.55181217 41.42331791 C-11.55704036 37.435928 -11.56413684 33.44855933 -11.57543945 29.46118164 C-11.58627061 25.61624886 -11.59227732 21.77133655 -11.59487724 17.92638969 C-11.59673108 16.45631017 -11.60035091 14.98623182 -11.60573006 13.51616096 C-11.61294355 11.46395533 -11.61399081 9.41183533 -11.61352539 7.35961914 C-11.615746 6.18935684 -11.61796661 5.01909454 -11.62025452 3.81336975 C-11.35093666 -2.0674374 -4.62192122 0.00297804 0 0 Z " fill="#E3E8EA" transform="translate(602.5,522.8125)"/>
<path d="M0 0 C8.25 0 16.5 0 25 0 C24.67 0.66 24.34 1.32 24 2 C16.74 1.67 9.48 1.34 2 1 C2 26.41 2 51.82 2 78 C1.34 77.67 0.68 77.34 0 77 C-1.05549385 72.578294 -1.09424382 68.32944738 -1.02172852 63.80126953 C-1.01212097 63.10788986 -1.00251343 62.41451019 -0.99261475 61.70011902 C-0.95985661 59.42757252 -0.91943762 57.1552325 -0.87890625 54.8828125 C-0.8545824 53.29955759 -0.83074001 51.71629522 -0.80735779 50.13302612 C-0.74474203 45.98030041 -0.67561252 41.82770804 -0.60510254 37.67510986 C-0.53421489 33.43190547 -0.46952049 29.18860707 -0.40429688 24.9453125 C-0.27557493 16.63010206 -0.13939527 8.31503836 0 0 Z " fill="#DEE2E6" transform="translate(875,369)"/>
<path d="M0 0 C0.33 0 0.66 0 1 0 C1 16.83 1 33.66 1 51 C8.92 51 16.84 51 25 51 C25 51.99 25 52.98 25 54 C21.04172765 54.05785647 17.0835633 54.09354717 13.125 54.125 C11.99707031 54.14175781 10.86914062 54.15851563 9.70703125 54.17578125 C8.09248047 54.18544922 8.09248047 54.18544922 6.4453125 54.1953125 C4.95281982 54.21102295 4.95281982 54.21102295 3.43017578 54.22705078 C1 54 1 54 -1 52 C-1.24723816 49.83006287 -1.24723816 49.83006287 -1.24291992 47.10717773 C-1.24599655 46.08949814 -1.24907318 45.07181854 -1.25224304 44.02330017 C-1.24505753 42.92119705 -1.23787201 41.81909393 -1.23046875 40.68359375 C-1.23001053 39.55679703 -1.22955231 38.43000031 -1.2290802 37.26905823 C-1.22605536 34.88419544 -1.21816221 32.49933467 -1.20581055 30.11450195 C-1.18755882 26.44931091 -1.18530077 22.78437235 -1.18554688 19.11914062 C-1.18063173 16.80728947 -1.17480342 14.49544003 -1.16796875 12.18359375 C-1.16685593 11.0794664 -1.1657431 9.97533905 -1.16459656 8.8377533 C-1.15821671 7.82322586 -1.15183685 6.80869843 -1.14526367 5.76342773 C-1.13954597 4.41679298 -1.13954597 4.41679298 -1.13371277 3.04295349 C-1 1 -1 1 0 0 Z " fill="#EBECEB" transform="translate(816,444)"/>
<path d="M0 0 C0.33 0 0.66 0 1 0 C1.33 26.4 1.66 52.8 2 80 C1.34 80 0.68 80 0 80 C-0.33 79.34 -0.66 78.68 -1 78 C-1.66 78 -2.32 78 -3 78 C-3 80.97 -3 83.94 -3 87 C-6 84 -6 84 -6.2487793 80.53833008 C-6.20642393 79.11483793 -6.14717971 77.69178319 -6.07421875 76.26953125 C-6.04777786 75.51911057 -6.02133698 74.76868988 -5.99409485 73.99552917 C-5.9063712 71.60037292 -5.79721299 69.20673997 -5.6875 66.8125 C-5.62423681 65.18820551 -5.56237089 63.56385595 -5.50195312 61.93945312 C-5.35083759 57.95881519 -5.18049431 53.97940967 -5 50 C-4.67 50 -4.34 50 -4 50 C-3.67 54.29 -3.34 58.58 -3 63 C-2.34 63 -1.68 63 -1 63 C-0.67 42.21 -0.34 21.42 0 0 Z " fill="#E4E7E8" transform="translate(202,416)"/>
<path d="M0 0 C8.25 0 16.5 0 25 0 C25 1.32 25 2.64 25 4 C20.74095325 8.25904675 12.68331105 7.04885987 6.93359375 7.06591797 C3.28879352 7.06092705 -0.35536546 7.0353848 -4 7 C-2.68 6.34 -1.36 5.68 0 5 C-0.33 4.01 -0.66 3.02 -1 2 C-0.67 1.34 -0.34 0.68 0 0 Z " fill="#132B47" transform="translate(502,611)"/>
<path d="M0 0 C4.95 0 9.9 0 15 0 C14.67 0.66 14.34 1.32 14 2 C10.04 2 6.08 2 2 2 C2 23.45 2 44.9 2 67 C1.34 67 0.68 67 0 67 C0 44.89 0 22.78 0 0 Z " fill="#E1E5E7" transform="translate(788,523)"/>
<path d="M0 0 C0.33 0 0.66 0 1 0 C1 20.79 1 41.58 1 63 C4.3 63 7.6 63 11 63 C11 55.41 11 47.82 11 40 C12.32 39.34 13.64 38.68 15 38 C15.99 38.66 16.98 39.32 18 40 C16.35 40 14.7 40 13 40 C13 48.25 13 56.5 13 65 C8.71 65 4.42 65 0 65 C0 43.55 0 22.1 0 0 Z " fill="#020816" transform="translate(593,525)"/>
<path d="M0 0 C7.26 0 14.52 0 22 0 C22 0.66 22 1.32 22 2 C16.02970315 4.98514842 8.6749948 3 2 3 C2 27.09 2 51.18 2 76 C1.67 76 1.34 76 1 76 C0.67 50.92 0.34 25.84 0 0 Z " fill="#20354F" transform="translate(877,370)"/>
<path d="M0 0 C0.33 0 0.66 0 1 0 C2.65 7.92 4.3 15.84 6 24 C2.37 24 -1.26 24 -5 24 C-3.74036562 15.86082401 -2.11666023 7.95864245 0 0 Z " fill="#F4F4F1" transform="translate(663,541)"/>
<path d="M0 0 C4.95 0 9.9 0 15 0 C15.33 0.66 15.66 1.32 16 2 C11.38 2 6.76 2 2 2 C2 11.57 2 21.14 2 31 C8.27 31 14.54 31 21 31 C19 33 19 33 17.02880859 33.22705078 C16.24328613 33.21657715 15.45776367 33.20610352 14.6484375 33.1953125 C13.49867432 33.18781982 13.49867432 33.18781982 12.32568359 33.18017578 C11.35195801 33.16196777 10.37823242 33.14375977 9.375 33.125 C6.28125 33.08375 3.1875 33.0425 0 33 C0 22.11 0 11.22 0 0 Z " fill="#EBECEC" transform="translate(655,393)"/>
<path d="M0 0 C5.94 0 11.88 0 18 0 C18 0.33 18 0.66 18 1 C12.39 1 6.78 1 1 1 C0.690625 2.93875 0.38125 4.8775 0.0625 6.875 C-0.875 12.75 -0.875 12.75 -2 15 C-6.29 15 -10.58 15 -15 15 C-14.67 12.36 -14.34 9.72 -14 7 C-13.01 7 -12.02 7 -11 7 C-11 7.66 -11 8.32 -11 9 C-9.02 8.34 -7.04 7.68 -5 7 C-5 7.66 -5 8.32 -5 9 C-4.34 9 -3.68 9 -3 9 C-3 8.01 -3 7.02 -3 6 C-2.34 6 -1.68 6 -1 6 C-0.67 4.02 -0.34 2.04 0 0 Z " fill="#0A172B" transform="translate(654,575)"/>
<path d="M0 0 C1.24716797 0.00451172 2.49433594 0.00902344 3.77929688 0.01367188 C6.83208221 0.02536837 9.88476498 0.04175914 12.9375 0.0625 C12.9375 0.3925 12.9375 0.7225 12.9375 1.0625 C32.7375 1.5575 32.7375 1.5575 52.9375 2.0625 C50.9375 4.0625 50.9375 4.0625 47.88766479 4.26504517 C46.57750397 4.24283905 45.26734314 4.22063293 43.91748047 4.19775391 C42.83439606 4.18356163 42.83439606 4.18356163 41.72943115 4.16908264 C39.33759556 4.13534589 36.94627211 4.08724768 34.5546875 4.0390625 C32.89846137 4.01290142 31.24222091 3.98763393 29.58596802 3.96322632 C25.22265509 3.89651596 20.85964293 3.81763626 16.49658203 3.73626709 C12.04601605 3.65540475 7.5952734 3.58598876 3.14453125 3.515625 C-5.5913603 3.37582005 -14.32696733 3.22316553 -23.0625 3.0625 C-23.0625 2.4025 -23.0625 1.7425 -23.0625 1.0625 C-15.35097276 0.00601245 -7.77584179 -0.05374053 0 0 Z " fill="#223853" transform="translate(445.0625,608.9375)"/>
<path d="M0 0 C0.99 0 1.98 0 3 0 C3 8.91 3 17.82 3 27 C-2.28 27 -7.56 27 -13 27 C-12.34 26.34 -11.68 25.68 -11 25 C-7.37 25 -3.74 25 0 25 C0 16.75 0 8.5 0 0 Z " fill="#EDECEA" transform="translate(466,525)"/>
<path d="M0 0 C8.58 0 17.16 0 26 0 C26.33 2.97 26.66 5.94 27 9 C26.34 7.68 25.68 6.36 25 5 C23.41596476 3.41596476 21.7228362 3.78025065 19.52734375 3.68359375 C18.17866211 3.62075195 18.17866211 3.62075195 16.80273438 3.55664062 C15.85720703 3.51732422 14.91167969 3.47800781 13.9375 3.4375 C12.98810547 3.39431641 12.03871094 3.35113281 11.06054688 3.30664062 C8.70721824 3.20020868 6.35362901 3.09956846 4 3 C4 5.97 4 8.94 4 12 C2 9 2 9 0 0 Z " fill="#212E41" transform="translate(441,370)"/>
<path d="M0 0 C1.98 0 3.96 0 6 0 C6.66 0.66 7.32 1.32 8 2 C6.02 2 4.04 2 2 2 C2.00523682 3.04454346 2.01047363 4.08908691 2.01586914 5.1652832 C2.03396598 9.03978621 2.04544918 12.91428548 2.05493164 16.78881836 C2.05996113 18.46590808 2.06678548 20.14299342 2.07543945 21.82006836 C2.08756559 24.230317 2.09324215 26.64050768 2.09765625 29.05078125 C2.10281754 29.80087967 2.10797882 30.55097809 2.11329651 31.32380676 C2.11363785 34.48951232 2.00887343 36.97337972 1 40 C3.31 40 5.62 40 8 40 C8 40.33 8 40.66 8 41 C5.36 41 2.72 41 0 41 C0 27.47 0 13.94 0 0 Z " fill="#FCFDFB" transform="translate(555,537)"/>
<path d="M0 0 C5.94 0 11.88 0 18 0 C18.33 2.64 18.66 5.28 19 8 C19.33 8 19.66 8 20 8 C19.99363525 8.74572266 19.98727051 9.49144531 19.98071289 10.25976562 C19.97197024 13.67416983 20.01680819 17.08590771 20.0625 20.5 C20.05154297 21.67304688 20.04058594 22.84609375 20.02929688 24.0546875 C20.17466794 31.44784457 21.11456269 35.51006294 26.50170898 40.72460938 C26.99614502 41.14548828 27.49058105 41.56636719 28 42 C25 42 25 42 23.46484375 40.57421875 C22.96082031 39.95160156 22.45679688 39.32898438 21.9375 38.6875 C21.43089844 38.07261719 20.92429688 37.45773437 20.40234375 36.82421875 C17.10887765 32.53996062 16.76077014 30.3056583 16.8046875 24.92578125 C16.8075174 24.2419487 16.81034729 23.55811615 16.81326294 22.8535614 C16.82444316 20.67302835 16.84954309 18.49290855 16.875 16.3125 C16.88503262 14.83268823 16.89415798 13.35287001 16.90234375 11.87304688 C16.92267261 8.24841126 16.96182328 4.6246673 17 1 C11.39 1 5.78 1 0 1 C0 0.67 0 0.34 0 0 Z " fill="#273950" transform="translate(176,466)"/>
<path d="M0 0 C8.25 0 16.5 0 25 0 C24.67 1.32 24.34 2.64 24 4 C23.01 4.495 23.01 4.495 22 5 C22 4.34 22 3.68 22 3 C15.4 3 8.8 3 2 3 C1.67 5.64 1.34 8.28 1 11 C0.67 11 0.34 11 0 11 C-1.125 3.375 -1.125 3.375 0 0 Z " fill="#253549" transform="translate(509,370)"/>
<path d="M0 0 C3.96 0 7.92 0 12 0 C12 0.33 12 0.66 12 1 C8.7 1 5.4 1 2 1 C2 9.91 2 18.82 2 28 C-2.95 28 -7.9 28 -13 28 C-12.34 27.34 -11.68 26.68 -11 26 C-7.37 26 -3.74 26 0 26 C0 17.42 0 8.84 0 0 Z " fill="#FBFDFB" transform="translate(453,564)"/>
<path d="M0 0 C4.29 0 8.58 0 13 0 C15 5 15 5 14 8 C13.67 6.68 13.34 5.36 13 4 C10.69 3.67 8.38 3.34 6 3 C6 3.66 6 4.32 6 5 C5.34 5 4.68 5 4 5 C4.66 7.97 5.32 10.94 6 14 C2.59801074 9.95001278 0 5.36373351 0 0 Z " fill="#122235" transform="translate(489,525)"/>
<path d="M0 0 C0.66 0.33 1.32 0.66 2 1 C2 1.99 2 2.98 2 4 C4.31 4 6.62 4 9 4 C4.78015804 8.21984196 -2.04954442 8.26862563 -7.75976562 8.32226562 C-8.89961914 8.31743164 -8.89961914 8.31743164 -10.0625 8.3125 C-10.82626953 8.32861328 -11.59003906 8.34472656 -12.37695312 8.36132812 C-17.65271773 8.36584118 -21.28550464 7.37290005 -26 5 C-23.44004229 3.72002114 -22.59793976 4.21169898 -19.875 4.9375 C-14.74227881 6.15249197 -9.6790863 7.05753406 -4.625 5.0625 C-4.08875 4.711875 -3.5525 4.36125 -3 4 C-2.34 3.67 -1.68 3.34 -1 3 C-0.67 2.01 -0.34 1.02 0 0 Z " fill="#0E131E" transform="translate(770,490)"/>
<path d="M0 0 C1.66362417 0.34820041 3.32995171 0.68404492 5 1 C5 1.66 5 2.32 5 3 C-9.19 3 -23.38 3 -38 3 C-38 2.67 -38 2.34 -38 2 C-37.1529248 1.98018066 -36.30584961 1.96036133 -35.43310547 1.93994141 C-32.26830998 1.86150405 -29.1038758 1.77479951 -25.93945312 1.68261719 C-24.57398079 1.64450798 -23.20841423 1.60962464 -21.84277344 1.578125 C-19.87152393 1.53208122 -17.90058796 1.47318951 -15.9296875 1.4140625 C-14.15440674 1.36693115 -14.15440674 1.36693115 -12.34326172 1.31884766 C-8.96273272 1.12379603 -8.96273272 1.12379603 -5.75439453 -0.08837891 C-3 -1 -3 -1 0 0 Z " fill="#133050" transform="translate(231,346)"/>
<path d="M0 0 C1.56454159 4.02014661 0.46223974 7.69925681 -0.4375 11.75 C-0.58509766 12.44738281 -0.73269531 13.14476562 -0.88476562 13.86328125 C-1.24868033 15.5772021 -1.62329068 17.28884581 -2 19 C-2.66 19 -3.32 19 -4 19 C-5.57680872 7.02477701 -5.57680872 7.02477701 -3 2 C-2.01 1.34 -1.02 0.68 0 0 Z " fill="#F3F2F0" transform="translate(491,448)"/>
<path d="M0 0 C4.29 0 8.58 0 13 0 C12.67 3.3 12.34 6.6 12 10 C11.67 10 11.34 10 11 10 C11 7.36 11 4.72 11 2 C7.7 2 4.4 2 1 2 C1 10.25 1 18.5 1 27 C0.67 27 0.34 27 0 27 C0 18.09 0 9.18 0 0 Z " fill="#070D1B" transform="translate(469,525)"/>
<path d="M0 0 C0.33 0 0.66 0 1 0 C1.99726683 20.49937365 1.99726683 20.49937365 -4.109375 27.375 C-4.73328125 27.91125 -5.3571875 28.4475 -6 29 C-5.71125 28.38125 -5.4225 27.7625 -5.125 27.125 C-2.13169877 18.81027435 -1.72848212 10.77907818 -2 2 C-1.34 2 -0.68 2 0 2 C0 1.34 0 0.68 0 0 Z " fill="#0B1529" transform="translate(708,406)"/>
<path d="M0 0 C2.44814179 3.0296652 4.09452853 6.07549599 5.6875 9.625 C6.12449219 10.58664062 6.56148437 11.54828125 7.01171875 12.5390625 C8 15 8 15 8 17 C3.38 17 -1.24 17 -6 17 C-6.33 15.68 -6.66 14.36 -7 13 C-6.67 13.66 -6.34 14.32 -6 15 C-2.37 15 1.26 15 5 15 C4.6390625 14.16855469 4.278125 13.33710937 3.90625 12.48046875 C3.4421875 11.39378906 2.978125 10.30710937 2.5 9.1875 C2.0359375 8.10855469 1.571875 7.02960937 1.09375 5.91796875 C0 3 0 3 0 0 Z " fill="#091223" transform="translate(627,573)"/>
<path d="M0 0 C2.09715785 3.14573677 2.52004559 5.01456251 3.125 8.6875 C3.29257812 9.68136719 3.46015625 10.67523438 3.6328125 11.69921875 C3.75398437 12.45847656 3.87515625 13.21773438 4 14 C-0.75 15.125 -0.75 15.125 -3 14 C-2.69147815 12.041036 -2.3780582 10.08284287 -2.0625 8.125 C-1.88847656 7.03445313 -1.71445312 5.94390625 -1.53515625 4.8203125 C-1 2 -1 2 0 0 Z " fill="#E5E6E7" transform="translate(573,401)"/>
<path d="M0 0 C1.9375 0.625 1.9375 0.625 4 2 C5.57080393 7.68481424 4.88910417 13.55618999 4.5625 19.375 C4.51029297 20.39722656 4.45808594 21.41945313 4.40429688 22.47265625 C4.27530513 24.98213196 4.14037142 27.4911394 4 30 C3.67 30 3.34 30 3 30 C2.67 23.07 2.34 16.14 2 9 C1.34 8.67 0.68 8.34 0 8 C0 5.36 0 2.72 0 0 Z " fill="#18314E" transform="translate(392,567)"/>
<path d="M0 0 C1.98 0.99 1.98 0.99 4 2 C4 3.65 4 5.3 4 7 C7.3 7 10.6 7 14 7 C14 5.02 14 3.04 14 1 C14.66 1.33 15.32 1.66 16 2 C16 4.31 16 6.62 16 9 C11.71 9 7.42 9 3 9 C2.690625 7.88625 2.38125 6.7725 2.0625 5.625 C1.17673517 2.2054845 1.17673517 2.2054845 0 0 Z " fill="#0C1426" transform="translate(886,536)"/>
<path d="M0 0 C0.66 0 1.32 0 2 0 C1.34 3.3 0.68 6.6 0 10 C-2.94131891 10.98043964 -4.82501665 11.11621202 -7.88671875 11.09765625 C-8.82451172 11.09443359 -9.76230469 11.09121094 -10.72851562 11.08789062 C-11.70498047 11.07951172 -12.68144531 11.07113281 -13.6875 11.0625 C-15.16959961 11.05573242 -15.16959961 11.05573242 -16.68164062 11.04882812 C-19.12115474 11.03704303 -21.56054689 11.02059011 -24 11 C-24 10.67 -24 10.34 -24 10 C-14.1 9.505 -14.1 9.505 -4 9 C-2.68 6.03 -1.36 3.06 0 0 Z " fill="#F0EEEB" transform="translate(300,519)"/>
<path d="M0 0 C2.76223278 2.76223278 2.57856291 5.20706617 3 9 C-1.62 9 -6.24 9 -11 9 C-11 7.35 -11 5.7 -11 4 C-9.515 4.99 -9.515 4.99 -8 6 C-5.72087062 6.45394552 -5.72087062 6.45394552 -3.3125 6.625 C-2.10013672 6.73714844 -2.10013672 6.73714844 -0.86328125 6.8515625 C-0.24839844 6.90054688 0.36648438 6.94953125 1 7 C0.67 4.69 0.34 2.38 0 0 Z " fill="#091225" transform="translate(685,581)"/>
<path d="M0 0 C0.86021035 2.48505213 1.00419908 3.97676509 0.53125 6.59375 C-0.113187 10.72572842 -0.1084666 14.7026473 -0.0625 18.875 C-0.05798828 19.65875 -0.05347656 20.4425 -0.04882812 21.25 C-0.03714093 23.16670014 -0.01920908 25.08336048 0 27 C-0.33 27 -0.66 27 -1 27 C-1.33 24.03 -1.66 21.06 -2 18 C-2.33 18 -2.66 18 -3 18 C-2.22095672 5.33029613 -2.22095672 5.33029613 0 0 Z " fill="#F0F0EE" transform="translate(297,567)"/>
<path d="M0 0 C0 0.66 0 1.32 0 2 C-6.93 2 -13.86 2 -21 2 C-20.67 1.34 -20.34 0.68 -20 0 C-17.04196565 -0.19421438 -14.08379837 -0.38066186 -11.125 -0.5625 C-10.28324219 -0.61857422 -9.44148437 -0.67464844 -8.57421875 -0.73242188 C-7.76855469 -0.78076172 -6.96289062 -0.82910156 -6.1328125 -0.87890625 C-5.01737061 -0.94960327 -5.01737061 -0.94960327 -3.87939453 -1.02172852 C-2 -1 -2 -1 0 0 Z " fill="#FCFCFB" transform="translate(584,445)"/>
<path d="M0 0 C0.33 0 0.66 0 1 0 C1.33 4.95 1.66 9.9 2 15 C1.34 15 0.68 15 0 15 C-0.33 14.34 -0.66 13.68 -1 13 C-1.66 13 -2.32 13 -3 13 C-2.67 12.01 -2.34 11.02 -2 10 C-1.34 10 -0.68 10 0 10 C0 6.7 0 3.4 0 0 Z M-4 13 C-2.5216774 15.95664519 -2.93967217 18.74229737 -3 22 C-4.5625 20.8125 -4.5625 20.8125 -6 19 C-5.57894737 14.57894737 -5.57894737 14.57894737 -4 13 Z " fill="#ECEFEF" transform="translate(202,481)"/>
<path d="M0 0 C1.52480529 3.04961059 0.48319094 5.2882993 -0.25 8.5625 C-0.50265625 9.73941406 -0.7553125 10.91632813 -1.015625 12.12890625 C-1.34046875 13.07636719 -1.6653125 14.02382813 -2 15 C-2.99 15.33 -3.98 15.66 -5 16 C-4.7834375 15.0409375 -4.7834375 15.0409375 -4.5625 14.0625 C-3.94587799 10.70533571 -3.69394991 7.39211044 -3.4765625 3.98828125 C-3 2 -3 2 0 0 Z " fill="#ECEDEB" transform="translate(496,428)"/>
<path d="M0 0 C0.33 0 0.66 0 1 0 C0.88641524 2.95918198 0.75966914 5.91676783 0.625 8.875 C0.5940625 9.71675781 0.563125 10.55851562 0.53125 11.42578125 C0.49257812 12.23144531 0.45390625 13.03710938 0.4140625 13.8671875 C0.36693115 14.98262939 0.36693115 14.98262939 0.31884766 16.12060547 C0 18 0 18 -2 20 C-2 16.37 -2 12.74 -2 9 C-2.33 9 -2.66 9 -3 9 C-3 7.35 -3 5.7 -3 4 C-2.34 3.67 -1.68 3.34 -1 3 C-0.67 2.01 -0.34 1.02 0 0 Z " fill="#0F192A" transform="translate(177,445)"/>
<path d="M0 0 C2.12791852 3.86819297 2.14745817 5.65605123 1 10 C-0.23288091 13.04975805 -1.58205563 16.03220946 -3 19 C-4.7093832 15.58123361 -2.95633777 11.93878035 -2.0625 8.375 C-1.86720703 7.57320313 -1.67191406 6.77140625 -1.47070312 5.9453125 C-0.98668398 3.96201453 -0.49413978 1.98080066 0 0 Z " fill="#E6E8EA" transform="translate(522,420)"/>
<path d="M0 0 C-0.33 0.66 -0.66 1.32 -1 2 C-3.546875 2.4140625 -3.546875 2.4140625 -6.75 2.625 C-7.79671875 2.69976563 -8.8434375 2.77453125 -9.921875 2.8515625 C-12.62170855 2.98175752 -15.29780358 3.0300244 -18 3 C-18 2.34 -18 1.68 -18 1 C-15.75152519 0.63627613 -13.50113812 0.28435904 -11.25 -0.0625 C-9.99703125 -0.25972656 -8.7440625 -0.45695313 -7.453125 -0.66015625 C-4.49983411 -0.95080818 -2.7397586 -0.98935727 0 0 Z " fill="#E7E9E9" transform="translate(529,617)"/>
<path d="M0 0 C2.57860235 3.86790352 2.01114505 6.76613915 1.625 11.1875 C1.56828125 11.93708984 1.5115625 12.68667969 1.453125 13.45898438 C1.31189331 15.30676559 1.15723833 17.153512 1 19 C0.01 19 -0.98 19 -2 19 C-1.34 12.73 -0.68 6.46 0 0 Z " fill="#E5E8E9" transform="translate(188,373)"/>
<path d="M0 0 C0.99 0.495 0.99 0.495 2 1 C2 1.66 2 2.32 2 3 C3.65 3 5.3 3 7 3 C6.01 5.64 5.02 8.28 4 11 C1.55160412 7.32740617 0 4.45351799 0 0 Z " fill="#EBEDEE" transform="translate(508,540)"/>
<path d="M0 0 C4.29 0 8.58 0 13 0 C12.67 0.99 12.34 1.98 12 3 C8.7 2.67 5.4 2.34 2 2 C2.33 2.99 2.66 3.98 3 5 C2.34 5 1.68 5 1 5 C0.67 3.35 0.34 1.7 0 0 Z " fill="#0E182E" transform="translate(489,525)"/>
<path d="M0 0 C-0.47050781 0.37511719 -0.94101562 0.75023437 -1.42578125 1.13671875 C-5.06639484 4.12910715 -7.85453304 6.70906609 -10 11 C-11.15419155 7.53742534 -10.8977049 7.02502312 -9.375 3.875 C-7.41634712 0.16852145 -7.41634712 0.16852145 -4.375 -1.0625 C-2 -1 -2 -1 0 0 Z " fill="#131E2F" transform="translate(338,569)"/>
<path d="M0 0 C0.33 0 0.66 0 1 0 C1.66 3.63 2.32 7.26 3 11 C2.34 10.67 1.68 10.34 1 10 C-0.32 11.32 -1.64 12.64 -3 14 C-2.01 9.38 -1.02 4.76 0 0 Z " fill="#DEE2E4" transform="translate(663,541)"/>
<path d="M0 0 C2.36300349 2.36300349 2.51433444 3.5798498 3.125 6.8125 C3.37636719 8.09060547 3.37636719 8.09060547 3.6328125 9.39453125 C3.995552 11.96843811 4.06523407 14.40461588 4 17 C3.67 16.34 3.34 15.68 3 15 C2.01 15 1.02 15 0 15 C0.08378906 14.41992188 0.16757813 13.83984375 0.25390625 13.2421875 C0.86209421 8.57684697 1.07205665 4.64557883 0 0 Z " fill="#18324F" transform="translate(232,419)"/>
<path d="M0 0 C0.33 0 0.66 0 1 0 C1 3.96 1 7.92 1 12 C0.01 12 -0.98 12 -2 12 C-2.33 12.99 -2.66 13.98 -3 15 C-2.44854729 9.76119922 -1.57077907 5.02649303 0 0 Z " fill="#152F4C" transform="translate(655,530)"/>
<path d="M0 0 C0.33 0.66 0.66 1.32 1 2 C-0.65 2.33 -2.3 2.66 -4 3 C-4 3.66 -4 4.32 -4 5 C-6.64 5.33 -9.28 5.66 -12 6 C-11.67 5.01 -11.34 4.02 -11 3 C-8.49609375 2.05078125 -8.49609375 2.05078125 -5.4375 1.3125 C-4.42558594 1.06113281 -3.41367187 0.80976563 -2.37109375 0.55078125 C-1.58863281 0.36902344 -0.80617188 0.18726563 0 0 Z " fill="#EEEFEE" transform="translate(780,494)"/>
<path d="M0 0 C1.9451 2.91765 2.45276317 4.62537285 3 8 C3.66 8 4.32 8 5 8 C5.33 9.65 5.66 11.3 6 13 C5.01 13 4.02 13 3 13 C1.68 9.04 0.36 5.08 -1 1 C-0.67 0.67 -0.34 0.34 0 0 Z " fill="#ECEDEC" transform="translate(322,409)"/>
<path d="M0 0 C0.66 0 1.32 0 2 0 C0.16508812 4.74018901 -1.91941459 9.36413251 -4 14 C-4.33 14 -4.66 14 -5 14 C-4.53411505 8.29290936 -3.06242216 4.84060277 0 0 Z " fill="#E7EAEB" transform="translate(138,564)"/>
<path d="M0 0 C3.16470185 4.74705277 3.10927475 8.31771295 3 14 C2.01 13.34 1.02 12.68 0 12 C-0.29296875 9.1796875 -0.29296875 9.1796875 -0.1875 5.875 C-0.16042969 4.77929688 -0.13335937 3.68359375 -0.10546875 2.5546875 C-0.07066406 1.71164062 -0.03585937 0.86859375 0 0 Z " fill="#111C2B" transform="translate(470,389)"/>
<path d="M0 0 C0.99 0 1.98 0 3 0 C3 1.32 3 2.64 3 4 C5.64 4.33 8.28 4.66 11 5 C11 5.33 11 5.66 11 6 C7.04 6 3.08 6 -1 6 C-0.67 4.02 -0.34 2.04 0 0 Z " fill="#23384F" transform="translate(640,582)"/>
<path d="M0 0 C3 3.625 3 3.625 3 7 C-0.3 7 -3.6 7 -7 7 C-7 6.67 -7 6.34 -7 6 C-5.02 6 -3.04 6 -1 6 C-0.67 4.02 -0.34 2.04 0 0 Z " fill="#17314F" transform="translate(629,581)"/>
<path d="M0 0 C0.33 0.99 0.66 1.98 1 3 C-1.40545638 4.20272819 -2.94996953 4.10071472 -5.625 4.0625 C-6.85089844 4.04896484 -6.85089844 4.04896484 -8.1015625 4.03515625 C-9.04128906 4.01775391 -9.04128906 4.01775391 -10 4 C-10 3.34 -10 2.68 -10 2 C-6.7 1.34 -3.4 0.68 0 0 Z " fill="#E9EBEA" transform="translate(887,575)"/>
<path d="M0 0 C0.33 0.66 0.66 1.32 1 2 C3.64 2 6.28 2 9 2 C9 2.33 9 2.66 9 3 C7.95199219 3.07347656 7.95199219 3.07347656 6.8828125 3.1484375 C5.97273437 3.22320313 5.06265625 3.29796875 4.125 3.375 C3.22007812 3.44460938 2.31515625 3.51421875 1.3828125 3.5859375 C-1.17941903 3.79568132 -1.17941903 3.79568132 -3 6 C-3.66 4.68 -4.32 3.36 -5 2 C-3.35 1.34 -1.7 0.68 0 0 Z " fill="#0D1D33" transform="translate(554,577)"/>
<path d="M0 0 C0.33 0 0.66 0 1 0 C1.144375 1.093125 1.28875 2.18625 1.4375 3.3125 C1.88288104 6.93122987 1.88288104 6.93122987 3 10 C2.02149805 11.02104551 1.02019573 12.0206121 0 13 C-0.33 13 -0.66 13 -1 13 C-1.0272415 11.58344207 -1.04650467 10.16672955 -1.0625 8.75 C-1.07410156 7.96109375 -1.08570313 7.1721875 -1.09765625 6.359375 C-1.00385306 4.09308998 -0.63241063 2.1711105 0 0 Z " fill="#0A1528" transform="translate(163,403)"/>
<path d="M0 0 C0.33 0 0.66 0 1 0 C1.33 5.61 1.66 11.22 2 17 C0.68 15.68 -0.64 14.36 -2 13 C-1.34 13 -0.68 13 0 13 C0 8.71 0 4.42 0 0 Z " fill="#030612" transform="translate(121,583)"/>
<path d="M0 0 C3.3 0 6.6 0 10 0 C10.33 1.98 10.66 3.96 11 6 C10.01 6.33 9.02 6.66 8 7 C8 5.02 8 3.04 8 1 C5.36 1.33 2.72 1.66 0 2 C0 1.34 0 0.68 0 0 Z " fill="#1A2F4C" transform="translate(843,573)"/>
<path d="M0 0 C0.66 0.33 1.32 0.66 2 1 C2 1.99 2 2.98 2 4 C4.31 4 6.62 4 9 4 C6.57479454 6.42520546 5.37932259 6.68564441 2 7 C-0.8125 6.0625 -0.8125 6.0625 -3 5 C-2.01 3.35 -1.02 1.7 0 0 Z " fill="#0E1E33" transform="translate(770,490)"/>
<path d="M0 0 C1.94569771 3.89139543 2.25687845 4.63666691 1.75 8.625 C1.66234375 9.40101563 1.5746875 10.17703125 1.484375 10.9765625 C1 13 1 13 -1 15 C-1.33 13.02 -1.66 11.04 -2 9 C-1.34 9 -0.68 9 0 9 C0 6.03 0 3.06 0 0 Z " fill="#0A162B" transform="translate(799,458)"/>
<path d="M0 0 C1.66832577 2.50248865 2.62381674 4.41149187 3.625 7.1875 C4.01558594 8.26064453 4.01558594 8.26064453 4.4140625 9.35546875 C4.60742188 9.89816406 4.80078125 10.44085938 5 11 C3.0625 10.6875 3.0625 10.6875 1 10 C-0.1577506 6.52674819 -0.06866652 3.63932552 0 0 Z " fill="#ECEDED" transform="translate(841,423)"/>
<path d="M0 0 C2 3.75 2 3.75 2 6 C-2.75 7.125 -2.75 7.125 -5 6 C-4.67 5.01 -4.34 4.02 -4 3 C-1.9375 2.3125 -1.9375 2.3125 0 2 C0 1.34 0 0.68 0 0 Z " fill="#DEDFE0" transform="translate(575,409)"/>
<path d="M0 0 C0.99 0 1.98 0 3 0 C3.125 7.75 3.125 7.75 2 10 C1.34 10 0.68 10 0 10 C0 6.7 0 3.4 0 0 Z " fill="#223550" transform="translate(706,398)"/>
<path d="M0 0 C0.33 0 0.66 0 1 0 C1 3.63 1 7.26 1 11 C0.34 11 -0.32 11 -1 11 C-1.33 8.69 -1.66 6.38 -2 4 C-1.34 4 -0.68 4 0 4 C0 2.68 0 1.36 0 0 Z " fill="#1F2E43" transform="translate(237,432)"/>
<path d="M0 0 C0.33 0 0.66 0 1 0 C0.88490339 1.41750563 0.75746342 2.83401169 0.625 4.25 C0.55539062 5.03890625 0.48578125 5.8278125 0.4140625 6.640625 C-0.01507113 9.085877 -0.78600638 10.84836903 -2 13 C-3.46845421 7.52667068 -2.44038726 4.88077452 0 0 Z " fill="#ECEDEE" transform="translate(543,422)"/>
<path d="M0 0 C2 2 2 2 2 5 C2.99 5.33 3.98 5.66 5 6 C5 7.65 5 9.3 5 11 C4.34 11 3.68 11 3 11 C2.49384702 9.73160474 1.99530901 8.46016898 1.5 7.1875 C1.2215625 6.47980469 0.943125 5.77210938 0.65625 5.04296875 C0 3 0 3 0 0 Z " fill="#10192A" transform="translate(675,470)"/>
<path d="M0 0 C1.32 0 2.64 0 4 0 C3.67 2.64 3.34 5.28 3 8 C2.01 7.34 1.02 6.68 0 6 C-0.1875 2.875 -0.1875 2.875 0 0 Z " fill="#0A182C" transform="translate(553,469)"/>
<path d="M0 0 C3 3 3 3 3.29296875 5.04296875 C3.1953125 7.02864583 3.09765625 9.01432292 3 11 C2.34 11 1.68 11 1 11 C0.67 7.37 0.34 3.74 0 0 Z " fill="#DEE3E6" transform="translate(486,456)"/>
<path d="M0 0 C0.66 0.66 1.32 1.32 2 2 C-1.465 4.97 -1.465 4.97 -5 8 C-6.32 7.34 -7.64 6.68 -9 6 C-8.071875 5.7525 -7.14375 5.505 -6.1875 5.25 C-2.83541675 3.93545755 -1.8122197 3.02036616 0 0 Z " fill="#1B314A" transform="translate(181,598)"/>
<path d="M0 0 C3.12290635 0.48578543 5.99580359 0.9986012 9 2 C8.67 2.66 8.34 3.32 8 4 C5.67843403 4.40729228 3.3431213 4.74438677 1 5 C0.67 3.35 0.34 1.7 0 0 Z " fill="#18314C" transform="translate(332,565)"/>
<path d="M0 0 C0.99 0.33 1.98 0.66 3 1 C1.88820837 4.33537489 0.52588702 5.63707344 -2 8 C-1.125 1.125 -1.125 1.125 0 0 Z " fill="#E6E8E8" transform="translate(828,537)"/>
<path d="M0 0 C-2.17424117 2.50037734 -3.73045798 3.43628586 -7 4 C-7 3.01 -7 2.02 -7 1 C-3.375 -1.125 -3.375 -1.125 0 0 Z " fill="#152337" transform="translate(577,585)"/>
<path d="M0 0 C0.33 0 0.66 0 1 0 C1.33 3.3 1.66 6.6 2 10 C1.01 10 0.02 10 -1 10 C-1.02689216 8.52093108 -1.04634621 7.04172517 -1.0625 5.5625 C-1.07410156 4.73878906 -1.08570313 3.91507813 -1.09765625 3.06640625 C-1 1 -1 1 0 0 Z " fill="#F0F0F0" transform="translate(693,569)"/>
<path d="M0 0 C0.33 0 0.66 0 1 0 C1.07654536 4.51617599 1.10228696 8.59085217 0 13 C-0.33 13 -0.66 13 -1 13 C-1.33 10.03 -1.66 7.06 -2 4 C-1.34 4 -0.68 4 0 4 C0 2.68 0 1.36 0 0 Z " fill="#08101C" transform="translate(183,401)"/>
<path d="M0 0 C0.99 0 1.98 0 3 0 C1.25 6.75 1.25 6.75 -1 9 C-0.67 6.03 -0.34 3.06 0 0 Z " fill="#ECEDEC" transform="translate(201,596)"/>
<path d="M0 0 C3.96 0.33 7.92 0.66 12 1 C12 1.33 12 1.66 12 2 C8.37 2.33 4.74 2.66 1 3 C0.67 2.01 0.34 1.02 0 0 Z " fill="#EEEFF0" transform="translate(705,590)"/>
<path d="M0 0 C3.91402949 1.26941497 5.79072873 2.51167694 8 6 C4.06830895 6 2.83572772 4.60580385 0 2 C0 1.34 0 0.68 0 0 Z " fill="#EDEEEE" transform="translate(230,528)"/>
<path d="M0 0 C0.66 0 1.32 0 2 0 C3.80411967 2.75924185 4.0127245 3.88972103 3.625 7.25 C3.41875 8.1575 3.2125 9.065 3 10 C1.11608215 6.73454239 0.50712033 3.71888239 0 0 Z " fill="#EEF1F1" transform="translate(611,457)"/>
<path d="M0 0 C0.66 0 1.32 0 2 0 C2.33 1.98 2.66 3.96 3 6 C2.01 6 1.02 6 0 6 C-0.38218767 4.34385343 -0.71395102 2.67542976 -1 1 C-0.67 0.67 -0.34 0.34 0 0 Z " fill="#ECECEA" transform="translate(625,562)"/>
<path d="M0 0 C0.99 0.33 1.98 0.66 3 1 C2.67 3.31 2.34 5.62 2 8 C0 6 0 6 -0.125 2.875 C-0.08375 1.92625 -0.0425 0.9775 0 0 Z " fill="#162437" transform="translate(183,392)"/>
</svg>
